<?xml version="1.0" encoding="UTF-8" standalone="no"?>
<!DOCTYPE svg PUBLIC "-//W3C//DTD SVG 1.1//EN"
 "http://www.w3.org/Graphics/SVG/1.1/DTD/svg11.dtd">
<!-- Generated by graphviz version 2.34.0 (20140110.0949)
 -->
<!-- Title: mig Pages: 1 -->
<svg width="1332pt" height="949pt"
 viewBox="0.00 0.00 1332.00 949.00" xmlns="http://www.w3.org/2000/svg" xmlns:xlink="http://www.w3.org/1999/xlink">
<g id="graph0" class="graph" transform="scale(1 1) rotate(0) translate(4 945)">
<title>mig</title>
<polygon fill="white" stroke="white" points="-4,4 -4,-945 1328,-945 1328,4 -4,4"/>
<g id="clust1" class="cluster"><title>cluster_investigator</title>
<polygon fill="white" stroke="white" points="8,-8 8,-649 502,-649 502,-8 8,-8"/>
<text text-anchor="middle" x="255" y="-633.8" font-family="Helvetica,sans-Serif" font-size="14.00">Investigators</text>
</g>
<g id="clust2" class="cluster"><title>cluster_platform</title>
<polygon fill="white" stroke="gray" points="534,-524 534,-933 1305,-933 1305,-524 534,-524"/>
<text text-anchor="middle" x="919.5" y="-917.8" font-family="Helvetica,sans-Serif" font-size="14.00">MIG Platform</text>
</g>
<g id="clust3" class="cluster"><title>cluster_api</title>
<polygon fill="white" stroke="gray" stroke-dasharray="5,2" points="551,-532 551,-694 671,-694 671,-532 551,-532"/>
<text text-anchor="middle" x="611" y="-678.8" font-family="Helvetica,sans-Serif" font-size="14.00" fill="orange">API</text>
</g>
<g id="clust4" class="cluster"><title>cluster_scheduler</title>
<polygon fill="white" stroke="gray" stroke-dasharray="5,2" points="542,-702 542,-888 1170,-888 1170,-702 542,-702"/>
<text text-anchor="middle" x="856" y="-872.8" font-family="Helvetica,sans-Serif" font-size="14.00" fill="green">Scheduler</text>
</g>
<g id="clust5" class="cluster"><title>cluster_agents</title>
<polygon fill="white" stroke="black" points="1204,-279 1204,-516 1316,-516 1316,-279 1204,-279"/>
<text text-anchor="middle" x="1260" y="-500.8" font-family="Helvetica,sans-Serif" font-size="14.00">MIG Agents</text>
</g>
<!-- Investigator -->
<g id="node1" class="node"><title>Investigator</title>
<polygon fill="blue" stroke="black" points="201.744,-582.049 204.885,-582.148 207.994,-582.295 211.057,-582.491 214.063,-582.735 216.999,-583.027 219.854,-583.364 222.617,-583.748 225.276,-584.176 227.823,-584.647 230.248,-585.161 232.543,-585.715 234.7,-586.308 236.712,-586.939 238.574,-587.605 240.279,-588.306 241.824,-589.039 243.206,-589.801 244.422,-590.592 245.471,-591.408 246.352,-592.248 247.065,-593.109 247.61,-593.989 247.991,-594.886 248.209,-595.797 248.268,-596.719 248.171,-597.65 247.923,-598.587 247.529,-599.529 246.994,-600.471 246.324,-601.413 245.526,-602.35 244.606,-603.281 243.57,-604.203 242.425,-605.114 241.179,-606.011 239.838,-606.891 238.41,-607.752 236.9,-608.592 235.317,-609.408 233.666,-610.199 231.953,-610.961 230.185,-611.694 228.368,-612.395 226.507,-613.061 224.607,-613.692 222.672,-614.285 220.708,-614.839 218.718,-615.353 216.706,-615.824 214.675,-616.252 212.628,-616.636 210.568,-616.973 208.497,-617.265 206.418,-617.509 204.331,-617.705 202.24,-617.852 200.145,-617.951 198.049,-618 195.951,-618 193.855,-617.951 191.76,-617.852 189.669,-617.705 187.582,-617.509 185.503,-617.265 183.432,-616.973 181.372,-616.636 179.325,-616.252 177.294,-615.824 175.282,-615.353 173.292,-614.839 171.328,-614.285 169.393,-613.692 167.493,-613.061 165.632,-612.395 163.815,-611.694 162.047,-610.961 160.334,-610.199 158.683,-609.408 157.1,-608.592 155.59,-607.752 154.162,-606.891 152.821,-606.011 151.575,-605.114 150.43,-604.203 149.394,-603.281 148.474,-602.35 147.676,-601.413 147.006,-600.471 146.471,-599.529 146.077,-598.587 145.829,-597.65 145.732,-596.719 145.791,-595.797 146.009,-594.886 146.39,-593.989 146.935,-593.109 147.648,-592.248 148.529,-591.408 149.578,-590.592 150.794,-589.801 152.176,-589.039 153.721,-588.306 155.426,-587.605 157.288,-586.939 159.3,-586.308 161.457,-585.715 163.752,-585.161 166.177,-584.647 168.724,-584.176 171.383,-583.748 174.146,-583.364 177.001,-583.027 179.937,-582.735 182.943,-582.491 186.006,-582.295 189.115,-582.148 192.256,-582.049 195.416,-582 198.584,-582 201.744,-582.049"/>
<text text-anchor="middle" x="197" y="-596.9" font-family="Helvetica,sans-Serif" font-size="12.00" fill="white">Investigator</text>
</g>
<!-- Console -->
<g id="node2" class="node"><title>Console</title>
<polygon fill="black" stroke="green" points="494,-599 428,-599 428,-563 494,-563 494,-599"/>
<text text-anchor="middle" x="461" y="-577.3" font-family="Helvetica,sans-Serif" font-size="14.00" fill="green">Console</text>
</g>
<!-- Investigator&#45;&gt;Console -->
<g id="edge1" class="edge"><title>Investigator&#45;&gt;Console</title>
<path fill="none" stroke="black" d="M248.229,-596.718C284.871,-593.308 335.367,-586.481 378,-573 386.528,-570.303 387.295,-566.055 396,-564 403.154,-562.311 410.727,-562.526 418.062,-563.8"/>
<polygon fill="black" stroke="black" points="417.321,-567.221 427.858,-566.113 418.93,-560.408 417.321,-567.221"/>
<text text-anchor="middle" x="403" y="-567.8" font-family="Times,serif" font-size="14.00">0</text>
</g>
<!-- Investigator&#45;&gt;Console -->
<g id="edge27" class="edge"><title>Investigator&#45;&gt;Console</title>
<path fill="none" stroke="black" d="M248.206,-596.359C297.384,-592.793 371.483,-587.419 417.735,-584.065"/>
<polygon fill="black" stroke="black" points="418.007,-587.555 427.728,-583.34 417.501,-580.573 418.007,-587.555"/>
<text text-anchor="middle" x="403" y="-589.8" font-family="Times,serif" font-size="14.00">18</text>
</g>
<!-- /action/create -->
<g id="node4" class="node"><title>/action/create</title>
<polygon fill="blue" stroke="black" points="660,-630 562,-630 562,-594 660,-594 660,-630"/>
<text text-anchor="middle" x="611" y="-608.3" font-family="Helvetica,sans-Serif" font-size="14.00" fill="white">/action/create</text>
</g>
<!-- Console&#45;&gt;/action/create -->
<g id="edge2" class="edge"><title>Console&#45;&gt;/action/create</title>
<path fill="none" stroke="black" d="M494.114,-587.727C511.059,-591.276 532.375,-595.741 552.089,-599.87"/>
<polygon fill="black" stroke="black" points="551.41,-603.304 561.915,-601.928 552.845,-596.452 551.41,-603.304"/>
<text text-anchor="middle" x="519" y="-597.8" font-family="Times,serif" font-size="14.00">1</text>
</g>
<!-- /action?id=xyz -->
<g id="node5" class="node"><title>/action?id=xyz</title>
<polygon fill="blue" stroke="black" points="662.5,-576 559.5,-576 559.5,-540 662.5,-540 662.5,-576"/>
<text text-anchor="middle" x="611" y="-554.3" font-family="Helvetica,sans-Serif" font-size="14.00" fill="white">/action?id=xyz</text>
</g>
<!-- Console&#45;&gt;/action?id=xyz -->
<g id="edge28" class="edge"><title>Console&#45;&gt;/action?id=xyz</title>
<path fill="none" stroke="black" d="M494.219,-574.234C500.121,-573.086 506.236,-571.958 512,-571 523.971,-569.011 536.804,-567.129 549.111,-565.447"/>
<polygon fill="black" stroke="black" points="549.848,-568.88 559.295,-564.083 548.918,-561.942 549.848,-568.88"/>
<text text-anchor="middle" x="519" y="-574.8" font-family="Times,serif" font-size="14.00">18</text>
</g>
<!-- Legend -->
<g id="node3" class="node"><title>Legend</title>
<polygon fill="none" stroke="gray" points="378,-564 16,-564 16,-16 378,-16 378,-564"/>
<text text-anchor="start" x="24" y="-550.4" font-family="Helvetica,sans-Serif" font-size="12.00">===== Legend =====</text>
<text text-anchor="start" x="24" y="-523.4" font-family="Helvetica,sans-Serif" font-size="12.00">0 &#45; generate signed action</text>
<text text-anchor="start" x="24" y="-496.4" font-family="Helvetica,sans-Serif" font-size="12.00">1 &#45; HTTP POST action</text>
<text text-anchor="start" x="24" y="-469.4" font-family="Helvetica,sans-Serif" font-size="12.00">2 &#45; Generate ID, init timestamps, verify signature, set status to &#39;init&#39;</text>
<text text-anchor="start" x="24" y="-442.4" font-family="Helvetica,sans-Serif" font-size="12.00">3 &#45; Write action into database and scheduler spool</text>
<text text-anchor="start" x="24" y="-415.4" font-family="Helvetica,sans-Serif" font-size="12.00">4 &#45; Verify action timestamps</text>
<text text-anchor="start" x="24" y="-388.4" font-family="Helvetica,sans-Serif" font-size="12.00">5 &#45; Find target agents, set status &#39;preparing&#39;, write to database</text>
<text text-anchor="start" x="24" y="-361.4" font-family="Helvetica,sans-Serif" font-size="12.00">6 &#45; Generate one command per action into the scheduler spool</text>
<text text-anchor="start" x="24" y="-334.4" font-family="Helvetica,sans-Serif" font-size="12.00">7 &#45; Process new commands from the scheduler spool</text>
<text text-anchor="start" x="24" y="-307.4" font-family="Helvetica,sans-Serif" font-size="12.00">8 &#45; Write command to database, set status to &#39;sent&#39;</text>
<text text-anchor="start" x="24" y="-280.4" font-family="Helvetica,sans-Serif" font-size="12.00">9 &#45; Publish command to mig.agt queues</text>
<text text-anchor="start" x="24" y="-253.4" font-family="Helvetica,sans-Serif" font-size="12.00">10 &#45; Update action in database, set status to &#39;inflight&#39;</text>
<text text-anchor="start" x="24" y="-226.4" font-family="Helvetica,sans-Serif" font-size="12.00">11 &#45; Push commands from relay to agents</text>
<text text-anchor="start" x="24" y="-199.4" font-family="Helvetica,sans-Serif" font-size="12.00">12 &#45; Return commands results from agents to relay</text>
<text text-anchor="start" x="24" y="-172.4" font-family="Helvetica,sans-Serif" font-size="12.00">13 &#45; Push returned commands from relay to scheduler</text>
<text text-anchor="start" x="24" y="-145.4" font-family="Helvetica,sans-Serif" font-size="12.00">14 &#45; Process returned commands from scheduler spool</text>
<text text-anchor="start" x="24" y="-118.4" font-family="Helvetica,sans-Serif" font-size="12.00">15 &#45; Write results to database, set command status to &#39;success&#39;</text>
<text text-anchor="start" x="24" y="-91.4" font-family="Helvetica,sans-Serif" font-size="12.00">16 &#45; Notify action updater that command has finished</text>
<text text-anchor="start" x="24" y="-64.4" font-family="Helvetica,sans-Serif" font-size="12.00">17 &#45; When all commands are done, set action status to &#39;done&#39;</text>
<text text-anchor="start" x="24" y="-37.4" font-family="Helvetica,sans-Serif" font-size="12.00">18 &#45; Retrieve action results</text>
</g>
<!-- /action/create&#45;&gt;/action/create -->
<g id="edge3" class="edge"><title>/action/create&#45;&gt;/action/create</title>
<path fill="none" stroke="black" d="M595.442,-630.153C593.048,-639.539 598.234,-648 611,-648 618.779,-648 623.744,-644.858 625.893,-640.28"/>
<polygon fill="black" stroke="black" points="629.396,-640.361 626.558,-630.153 622.411,-639.902 629.396,-640.361"/>
<text text-anchor="middle" x="611" y="-651.8" font-family="Times,serif" font-size="14.00">2</text>
</g>
<!-- SchedulerSpool -->
<g id="node6" class="node"><title>SchedulerSpool</title>
<polygon fill="white" stroke="black" points="838,-779 726,-779 722,-775 722,-743 834,-743 838,-747 838,-779"/>
<polyline fill="none" stroke="black" points="834,-775 722,-775 "/>
<polyline fill="none" stroke="black" points="834,-775 834,-743 "/>
<polyline fill="none" stroke="black" points="834,-775 838,-779 "/>
<text text-anchor="middle" x="780" y="-757.3" font-family="Helvetica,sans-Serif" font-size="14.00">Scheduler Spool</text>
</g>
<!-- /action/create&#45;&gt;SchedulerSpool -->
<g id="edge5" class="edge"><title>/action/create&#45;&gt;SchedulerSpool</title>
<path fill="none" stroke="black" d="M623.373,-630.048C640.278,-655.625 674.408,-702.736 719.935,-736.968"/>
<polygon fill="black" stroke="black" points="718.104,-739.963 728.258,-742.987 722.206,-734.291 718.104,-739.963"/>
<text text-anchor="middle" x="697" y="-725.8" font-family="Times,serif" font-size="14.00">3</text>
</g>
<!-- Database -->
<g id="node12" class="node"><title>Database</title>
<polygon fill="black" stroke="black" points="1297,-767 1227,-767 1223,-763 1223,-695 1293,-695 1297,-699 1297,-767"/>
<polyline fill="none" stroke="black" points="1293,-763 1223,-763 "/>
<polyline fill="none" stroke="black" points="1293,-763 1293,-695 "/>
<polyline fill="none" stroke="black" points="1293,-763 1297,-767 "/>
<text text-anchor="middle" x="1260" y="-727.3" font-family="Helvetica,sans-Serif" font-size="14.00" fill="white">Database</text>
</g>
<!-- /action/create&#45;&gt;Database -->
<g id="edge4" class="edge"><title>/action/create&#45;&gt;Database</title>
<path fill="none" stroke="black" d="M660.309,-611.882C758.665,-612.932 988.235,-622.007 1170,-680 1185.17,-684.84 1200.6,-692.521 1214.26,-700.467"/>
<polygon fill="black" stroke="black" points="1212.58,-703.544 1222.96,-705.7 1216.19,-697.546 1212.58,-703.544"/>
<text text-anchor="middle" x="952" y="-646.8" font-family="Times,serif" font-size="14.00">3</text>
</g>
<!-- /action?id=xyz&#45;&gt;Database -->
<g id="edge29" class="edge"><title>/action?id=xyz&#45;&gt;Database</title>
<path fill="none" stroke="black" d="M662.635,-561.994C783.024,-572.175 1082.8,-601.757 1170,-650 1187.9,-659.905 1205.13,-674.085 1219.58,-687.82"/>
<polygon fill="black" stroke="black" points="1217.28,-690.457 1226.88,-694.937 1222.16,-685.447 1217.28,-690.457"/>
<text text-anchor="middle" x="952" y="-609.8" font-family="Times,serif" font-size="14.00">18</text>
</g>
<!-- processNewAction -->
<g id="node7" class="node"><title>processNewAction</title>
<polygon fill="orange" stroke="black" points="1016,-856 888,-856 888,-820 1016,-820 1016,-856"/>
<text text-anchor="middle" x="952" y="-834.3" font-family="Helvetica,sans-Serif" font-size="14.00">processNewAction</text>
</g>
<!-- SchedulerSpool&#45;&gt;processNewAction -->
<g id="edge6" class="edge"><title>SchedulerSpool&#45;&gt;processNewAction</title>
<path fill="none" stroke="black" d="M798.741,-779.048C812.977,-792.446 834.134,-810.054 856,-820 862.983,-823.177 870.501,-825.793 878.14,-827.947"/>
<polygon fill="black" stroke="black" points="877.293,-831.343 887.849,-830.437 879.032,-824.563 877.293,-831.343"/>
<text text-anchor="middle" x="863" y="-828.8" font-family="Times,serif" font-size="14.00">4</text>
</g>
<!-- sendCommands -->
<g id="node8" class="node"><title>sendCommands</title>
<polygon fill="orange" stroke="black" points="1010,-746 894,-746 894,-710 1010,-710 1010,-746"/>
<text text-anchor="middle" x="952" y="-724.3" font-family="Helvetica,sans-Serif" font-size="14.00">sendCommands</text>
</g>
<!-- SchedulerSpool&#45;&gt;sendCommands -->
<g id="edge9" class="edge"><title>SchedulerSpool&#45;&gt;sendCommands</title>
<path fill="none" stroke="black" d="M838.08,-749.92C852.798,-747.063 868.772,-743.962 883.946,-741.016"/>
<polygon fill="black" stroke="black" points="884.631,-744.449 893.781,-739.107 883.297,-737.577 884.631,-744.449"/>
<text text-anchor="middle" x="863" y="-749.8" font-family="Times,serif" font-size="14.00">7</text>
</g>
<!-- returnCommands -->
<g id="node10" class="node"><title>returnCommands</title>
<polygon fill="orange" stroke="black" points="1013,-800 891,-800 891,-764 1013,-764 1013,-800"/>
<text text-anchor="middle" x="952" y="-778.3" font-family="Helvetica,sans-Serif" font-size="14.00">returnCommands</text>
</g>
<!-- SchedulerSpool&#45;&gt;returnCommands -->
<g id="edge23" class="edge"><title>SchedulerSpool&#45;&gt;returnCommands</title>
<path fill="none" stroke="black" d="M838.069,-763.863C848.703,-764.676 859.705,-765.704 870,-767 873.618,-767.455 877.32,-767.969 881.051,-768.525"/>
<polygon fill="black" stroke="black" points="880.542,-771.987 890.964,-770.082 881.629,-765.072 880.542,-771.987"/>
<text text-anchor="middle" x="863" y="-770.8" font-family="Times,serif" font-size="14.00">14</text>
</g>
<!-- processNewAction&#45;&gt;SchedulerSpool -->
<g id="edge8" class="edge"><title>processNewAction&#45;&gt;SchedulerSpool</title>
<path fill="none" stroke="black" d="M911.471,-819.885C898.289,-813.86 883.519,-807.125 870,-801 857.211,-795.205 843.374,-788.97 830.508,-783.187"/>
<polygon fill="black" stroke="black" points="831.897,-779.973 821.341,-779.068 829.028,-786.359 831.897,-779.973"/>
<text text-anchor="middle" x="863" y="-804.8" font-family="Times,serif" font-size="14.00">6</text>
</g>
<!-- processNewAction&#45;&gt;Database -->
<g id="edge7" class="edge"><title>processNewAction&#45;&gt;Database</title>
<path fill="none" stroke="black" d="M1016.25,-854.089C1060.11,-862.563 1119.48,-868.659 1170,-855 1206.51,-845.129 1229.98,-807.717 1243.59,-776.545"/>
<polygon fill="black" stroke="black" points="1246.91,-777.686 1247.51,-767.108 1240.44,-775.005 1246.91,-777.686"/>
<text text-anchor="middle" x="1114" y="-866.8" font-family="Times,serif" font-size="14.00">5</text>
</g>
<!-- processNewAction&#45;&gt;Database -->
<g id="edge12" class="edge"><title>processNewAction&#45;&gt;Database</title>
<path fill="none" stroke="black" d="M1016.44,-839.085C1061.19,-837.611 1121.55,-831 1170,-809 1188.32,-800.681 1205.65,-787.313 1220.06,-773.975"/>
<polygon fill="black" stroke="black" points="1222.52,-776.472 1227.32,-767.031 1217.68,-771.413 1222.52,-776.472"/>
<text text-anchor="middle" x="1114" y="-838.8" font-family="Times,serif" font-size="14.00">10</text>
</g>
<!-- sendCommands&#45;&gt;Database -->
<g id="edge10" class="edge"><title>sendCommands&#45;&gt;Database</title>
<path fill="none" stroke="black" d="M1010.29,-726.019C1023.24,-723.844 1036.54,-720.144 1048,-714 1058.54,-708.349 1055.08,-698.865 1066,-694 1108.22,-675.195 1124.67,-684.953 1170,-694 1184.67,-696.927 1199.94,-702.32 1213.61,-708.101"/>
<polygon fill="black" stroke="black" points="1212.23,-711.316 1222.79,-712.139 1215.04,-704.908 1212.23,-711.316"/>
<text text-anchor="middle" x="1114" y="-697.8" font-family="Times,serif" font-size="14.00">8</text>
</g>
<!-- Relay -->
<g id="node13" class="node"><title>Relay</title>
<polygon fill="red" stroke="black" points="1150,-604 1078,-604 1078,-600 1074,-600 1074,-596 1078,-596 1078,-540 1074,-540 1074,-536 1078,-536 1078,-532 1150,-532 1150,-604"/>
<polyline fill="none" stroke="black" points="1078,-600 1082,-600 1082,-596 1078,-596 "/>
<polyline fill="none" stroke="black" points="1078,-540 1082,-540 1082,-536 1078,-536 "/>
<text text-anchor="middle" x="1114" y="-564.3" font-family="Helvetica,sans-Serif" font-size="14.00" fill="white">Relay</text>
</g>
<!-- sendCommands&#45;&gt;Relay -->
<g id="edge11" class="edge"><title>sendCommands&#45;&gt;Relay</title>
<path fill="none" stroke="black" d="M1008.46,-709.883C1011.05,-708.65 1013.57,-707.355 1016,-706 1032,-697.068 1036.09,-693.931 1048,-680 1065.19,-659.886 1080.31,-634.596 1091.63,-613.139"/>
<polygon fill="black" stroke="black" points="1094.77,-614.695 1096.25,-604.204 1088.55,-611.483 1094.77,-614.695"/>
<text text-anchor="middle" x="1041" y="-698.8" font-family="Times,serif" font-size="14.00">9</text>
</g>
<!-- recvAgentResults -->
<g id="node9" class="node"><title>recvAgentResults</title>
<polygon fill="orange" stroke="black" points="672,-765 550,-765 550,-729 672,-729 672,-765"/>
<text text-anchor="middle" x="611" y="-743.3" font-family="Helvetica,sans-Serif" font-size="14.00">recvAgentResults</text>
</g>
<!-- recvAgentResults&#45;&gt;SchedulerSpool -->
<g id="edge22" class="edge"><title>recvAgentResults&#45;&gt;SchedulerSpool</title>
<path fill="none" stroke="black" d="M672.291,-752.054C685.044,-753.123 698.583,-754.258 711.581,-755.348"/>
<polygon fill="black" stroke="black" points="711.606,-758.862 721.864,-756.21 712.191,-751.887 711.606,-758.862"/>
<text text-anchor="middle" x="697" y="-758.8" font-family="Times,serif" font-size="14.00">13</text>
</g>
<!-- updateAction -->
<g id="node11" class="node"><title>updateAction</title>
<polygon fill="orange" stroke="black" points="1161.5,-800 1066.5,-800 1066.5,-764 1161.5,-764 1161.5,-800"/>
<text text-anchor="middle" x="1114" y="-778.3" font-family="Helvetica,sans-Serif" font-size="14.00">updateAction</text>
</g>
<!-- returnCommands&#45;&gt;updateAction -->
<g id="edge25" class="edge"><title>returnCommands&#45;&gt;updateAction</title>
<path fill="none" stroke="black" d="M1013.04,-777.184C1024.64,-776.722 1036.69,-776.566 1048,-777 1050.66,-777.102 1053.39,-777.228 1056.14,-777.372"/>
<polygon fill="black" stroke="black" points="1055.97,-780.868 1066.16,-777.965 1056.38,-773.881 1055.97,-780.868"/>
<text text-anchor="middle" x="1041" y="-780.8" font-family="Times,serif" font-size="14.00">16</text>
</g>
<!-- returnCommands&#45;&gt;Database -->
<g id="edge24" class="edge"><title>returnCommands&#45;&gt;Database</title>
<path fill="none" stroke="black" d="M997.326,-763.927C1022.85,-753.841 1052.47,-742.761 1066,-740 1115.33,-729.937 1173.16,-728.58 1212.56,-729.18"/>
<polygon fill="black" stroke="black" points="1212.6,-732.681 1222.66,-729.383 1212.74,-725.682 1212.6,-732.681"/>
<text text-anchor="middle" x="1114" y="-743.8" font-family="Times,serif" font-size="14.00">15</text>
</g>
<!-- updateAction&#45;&gt;Database -->
<g id="edge26" class="edge"><title>updateAction&#45;&gt;Database</title>
<path fill="none" stroke="black" d="M1161.75,-765.442C1178.37,-759.558 1197.03,-752.947 1213.54,-747.102"/>
<polygon fill="black" stroke="black" points="1214.71,-750.398 1222.97,-743.76 1212.38,-743.799 1214.71,-750.398"/>
<text text-anchor="middle" x="1187" y="-762.8" font-family="Times,serif" font-size="14.00">17</text>
</g>
<!-- Relay&#45;&gt;recvAgentResults -->
<g id="edge21" class="edge"><title>Relay&#45;&gt;recvAgentResults</title>
<path fill="none" stroke="black" d="M1084.38,-604.434C1066.76,-624.412 1042.51,-647.912 1016,-662 958.941,-692.327 781.844,-722.1 682.106,-737.055"/>
<polygon fill="black" stroke="black" points="681.487,-733.609 672.112,-738.543 682.518,-740.532 681.487,-733.609"/>
<text text-anchor="middle" x="863" y="-710.8" font-family="Times,serif" font-size="14.00">13</text>
</g>
<!-- agent1 -->
<g id="node14" class="node"><title>agent1</title>
<polygon fill="white" stroke="black" points="1306.69,-310.562 1260,-323 1213.31,-310.562 1213.35,-290.438 1306.65,-290.438 1306.69,-310.562"/>
<text text-anchor="middle" x="1260" y="-301.3" font-family="Helvetica,sans-Serif" font-size="14.00">agent1</text>
</g>
<!-- Relay&#45;&gt;agent1 -->
<g id="edge13" class="edge"><title>Relay&#45;&gt;agent1</title>
<path fill="none" stroke="black" d="M1118.47,-531.991C1125.6,-466.475 1144.33,-331.95 1180,-304 1186.6,-298.827 1194.55,-296.182 1202.84,-295.153"/>
<polygon fill="black" stroke="black" points="1203.23,-298.638 1213.04,-294.637 1202.88,-291.647 1203.23,-298.638"/>
<text text-anchor="middle" x="1187" y="-307.8" font-family="Times,serif" font-size="14.00">11</text>
</g>
<!-- agent2 -->
<g id="node15" class="node"><title>agent2</title>
<polygon fill="white" stroke="black" points="1306.69,-472.562 1260,-485 1213.31,-472.562 1213.35,-452.438 1306.65,-452.438 1306.69,-472.562"/>
<text text-anchor="middle" x="1260" y="-463.3" font-family="Helvetica,sans-Serif" font-size="14.00">agent2</text>
</g>
<!-- Relay&#45;&gt;agent2 -->
<g id="edge14" class="edge"><title>Relay&#45;&gt;agent2</title>
<path fill="none" stroke="black" d="M1150.23,-543.293C1175.48,-525.582 1208.98,-502.087 1232.09,-485.872"/>
<polygon fill="black" stroke="black" points="1234.23,-488.649 1240.41,-480.042 1230.21,-482.918 1234.23,-488.649"/>
<text text-anchor="middle" x="1187" y="-524.8" font-family="Times,serif" font-size="14.00">11</text>
</g>
<!-- agent3 -->
<g id="node16" class="node"><title>agent3</title>
<polygon fill="white" stroke="black" points="1306.69,-418.562 1260,-431 1213.31,-418.562 1213.35,-398.438 1306.65,-398.438 1306.69,-418.562"/>
<text text-anchor="middle" x="1260" y="-409.3" font-family="Helvetica,sans-Serif" font-size="14.00">agent3</text>
</g>
<!-- Relay&#45;&gt;agent3 -->
<g id="edge15" class="edge"><title>Relay&#45;&gt;agent3</title>
<path fill="none" stroke="black" d="M1130.66,-531.931C1142.03,-508.498 1159.06,-478.281 1180,-456 1191.4,-443.865 1207.01,-434.378 1221.35,-427.439"/>
<polygon fill="black" stroke="black" points="1222.89,-430.585 1230.53,-423.245 1219.98,-424.218 1222.89,-430.585"/>
<text text-anchor="middle" x="1187" y="-459.8" font-family="Times,serif" font-size="14.00">11</text>
</g>
<!-- agentX -->
<g id="node17" class="node"><title>agentX</title>
<polygon fill="white" stroke="black" points="1307.3,-364.562 1260,-377 1212.7,-364.562 1212.75,-344.438 1307.25,-344.438 1307.3,-364.562"/>
<text text-anchor="middle" x="1260" y="-355.3" font-family="Helvetica,sans-Serif" font-size="14.00">agentX</text>
</g>
<!-- Relay&#45;&gt;agentX -->
<g id="edge16" class="edge"><title>Relay&#45;&gt;agentX</title>
<path fill="none" stroke="black" d="M1124.11,-531.717C1136.06,-491.091 1160.76,-425.752 1204,-386 1209.05,-381.357 1215.05,-377.339 1221.19,-373.927"/>
<polygon fill="black" stroke="black" points="1222.87,-377 1230.21,-369.358 1219.71,-370.755 1222.87,-377"/>
<text text-anchor="middle" x="1187" y="-414.8" font-family="Times,serif" font-size="14.00">11</text>
</g>
<!-- agent1&#45;&gt;Relay -->
<g id="edge17" class="edge"><title>agent1&#45;&gt;Relay</title>
<path fill="none" stroke="black" d="M1229.53,-315.03C1212.26,-322.481 1191.62,-334.428 1180,-352 1145.46,-404.236 1128.71,-475.492 1121,-521.625"/>
<polygon fill="black" stroke="black" points="1117.52,-521.216 1119.4,-531.642 1124.44,-522.319 1117.52,-521.216"/>
<text text-anchor="middle" x="1187" y="-355.8" font-family="Times,serif" font-size="14.00">12</text>
</g>
<!-- agent2&#45;&gt;Relay -->
<g id="edge18" class="edge"><title>agent2&#45;&gt;Relay</title>
<path fill="none" stroke="black" d="M1242.13,-480.57C1230.41,-490.592 1214.99,-505.041 1204,-520 1198.11,-528.008 1201.45,-533.418 1194,-540 1184.37,-548.517 1171.97,-554.49 1159.86,-558.661"/>
<polygon fill="black" stroke="black" points="1158.79,-555.329 1150.28,-561.634 1160.87,-562.015 1158.79,-555.329"/>
<text text-anchor="middle" x="1187" y="-553.8" font-family="Times,serif" font-size="14.00">12</text>
</g>
<!-- agent3&#45;&gt;Relay -->
<g id="edge19" class="edge"><title>agent3&#45;&gt;Relay</title>
<path fill="none" stroke="black" d="M1228.66,-422.668C1219.7,-426.79 1210.54,-432.438 1204,-440 1194.53,-450.948 1200.91,-458.28 1194,-471 1183.93,-489.526 1170.14,-507.95 1156.9,-523.685"/>
<polygon fill="black" stroke="black" points="1153.91,-521.791 1150.04,-531.655 1159.22,-526.355 1153.91,-521.791"/>
<text text-anchor="middle" x="1187" y="-495.8" font-family="Times,serif" font-size="14.00">12</text>
</g>
<!-- agentX&#45;&gt;Relay -->
<g id="edge20" class="edge"><title>agentX&#45;&gt;Relay</title>
<path fill="none" stroke="black" d="M1212.6,-362.847C1200.81,-365.802 1188.95,-370.762 1180,-379 1139.81,-415.974 1124.47,-478.919 1118.61,-521.928"/>
<polygon fill="black" stroke="black" points="1115.14,-521.509 1117.38,-531.864 1122.09,-522.371 1115.14,-521.509"/>
<text text-anchor="middle" x="1187" y="-382.8" font-family="Times,serif" font-size="14.00">12</text>
</g>
</g>
</svg>
