<?xml version="1.0" encoding="UTF-8" standalone="no"?>
<!DOCTYPE svg PUBLIC "-//W3C//DTD SVG 1.1//EN"
 "http://www.w3.org/Graphics/SVG/1.1/DTD/svg11.dtd">
<!-- Generated by graphviz version 2.38.0 (20140413.2041)
 -->
<!-- Title: mig Pages: 1 -->
<svg width="1058pt" height="1488pt"
 viewBox="0.00 0.00 1057.80 1488.00" xmlns="http://www.w3.org/2000/svg" xmlns:xlink="http://www.w3.org/1999/xlink">
<g id="graph0" class="graph" transform="scale(1 1) rotate(0) translate(4 1484)">
<title>mig</title>
<polygon fill="white" stroke="none" points="-4,4 -4,-1484 1053.8,-1484 1053.8,4 -4,4"/>
<g id="clust1" class="cluster"><title>cluster_investigator</title>
<polygon fill="white" stroke="white" points="188,-831 188,-1472 713,-1472 713,-831 188,-831"/>
<text text-anchor="middle" x="450.5" y="-1456.8" font-family="Helvetica,sans-Serif" font-size="14.00">Investigators</text>
</g>
<g id="clust2" class="cluster"><title>cluster_platform</title>
<polygon fill="white" stroke="gray" points="8,-253 8,-823 1031.4,-823 1031.4,-253 8,-253"/>
<text text-anchor="middle" x="519.7" y="-807.8" font-family="Helvetica,sans-Serif" font-size="14.00">MIG Platform</text>
</g>
<g id="clust3" class="cluster"><title>cluster_api</title>
<polygon fill="white" stroke="gray" stroke-dasharray="5,2" points="778,-630 778,-792 897,-792 897,-630 778,-630"/>
<text text-anchor="middle" x="837.5" y="-776.8" font-family="Helvetica,sans-Serif" font-size="14.00" fill="orange">API</text>
</g>
<g id="clust4" class="cluster"><title>cluster_scheduler</title>
<polygon fill="white" stroke="gray" stroke-dasharray="5,2" points="16,-436 16,-622 893,-622 893,-436 16,-436"/>
<text text-anchor="middle" x="454.5" y="-606.8" font-family="Helvetica,sans-Serif" font-size="14.00" fill="green">Scheduler</text>
</g>
<g id="clust5" class="cluster"><title>cluster_agents</title>
<polygon fill="white" stroke="black" points="931,-8 931,-245 1041.8,-245 1041.8,-8 931,-8"/>
<text text-anchor="middle" x="986.399" y="-229.8" font-family="Helvetica,sans-Serif" font-size="14.00">MIG Agents</text>
</g>
<!-- Investigator -->
<g id="node1" class="node"><title>Investigator</title>
<polygon fill="blue" stroke="black" points="381.744,-1405.05 384.885,-1405.15 387.994,-1405.3 391.057,-1405.49 394.063,-1405.74 396.999,-1406.03 399.854,-1406.36 402.617,-1406.75 405.276,-1407.18 407.823,-1407.65 410.248,-1408.16 412.543,-1408.71 414.7,-1409.31 416.712,-1409.94 418.574,-1410.61 420.279,-1411.31 421.824,-1412.04 423.206,-1412.8 424.422,-1413.59 425.471,-1414.41 426.352,-1415.25 427.065,-1416.11 427.61,-1416.99 427.991,-1417.89 428.209,-1418.8 428.268,-1419.72 428.171,-1420.65 427.923,-1421.59 427.529,-1422.53 426.994,-1423.47 426.324,-1424.41 425.526,-1425.35 424.606,-1426.28 423.57,-1427.2 422.425,-1428.11 421.179,-1429.01 419.838,-1429.89 418.41,-1430.75 416.9,-1431.59 415.317,-1432.41 413.666,-1433.2 411.953,-1433.96 410.185,-1434.69 408.368,-1435.39 406.507,-1436.06 404.607,-1436.69 402.672,-1437.29 400.708,-1437.84 398.718,-1438.35 396.706,-1438.82 394.675,-1439.25 392.628,-1439.64 390.568,-1439.97 388.497,-1440.26 386.418,-1440.51 384.331,-1440.7 382.24,-1440.85 380.145,-1440.95 378.049,-1441 375.951,-1441 373.855,-1440.95 371.76,-1440.85 369.669,-1440.7 367.582,-1440.51 365.503,-1440.26 363.432,-1439.97 361.372,-1439.64 359.325,-1439.25 357.294,-1438.82 355.282,-1438.35 353.292,-1437.84 351.328,-1437.29 349.393,-1436.69 347.493,-1436.06 345.632,-1435.39 343.815,-1434.69 342.047,-1433.96 340.334,-1433.2 338.683,-1432.41 337.1,-1431.59 335.59,-1430.75 334.162,-1429.89 332.821,-1429.01 331.575,-1428.11 330.43,-1427.2 329.394,-1426.28 328.474,-1425.35 327.676,-1424.41 327.006,-1423.47 326.471,-1422.53 326.077,-1421.59 325.829,-1420.65 325.732,-1419.72 325.791,-1418.8 326.009,-1417.89 326.39,-1416.99 326.935,-1416.11 327.648,-1415.25 328.529,-1414.41 329.578,-1413.59 330.794,-1412.8 332.176,-1412.04 333.721,-1411.31 335.426,-1410.61 337.288,-1409.94 339.3,-1409.31 341.457,-1408.71 343.752,-1408.16 346.177,-1407.65 348.724,-1407.18 351.383,-1406.75 354.146,-1406.36 357.001,-1406.03 359.937,-1405.74 362.943,-1405.49 366.006,-1405.3 369.115,-1405.15 372.256,-1405.05 375.416,-1405 378.584,-1405 381.744,-1405.05"/>
<text text-anchor="middle" x="377" y="-1419.9" font-family="Helvetica,sans-Serif" font-size="12.00" fill="white">Investigator</text>
</g>
<!-- Console -->
<g id="node2" class="node"><title>Console</title>
<polygon fill="black" stroke="green" points="705,-1007 639,-1007 639,-971 705,-971 705,-1007"/>
<text text-anchor="middle" x="672" y="-985.3" font-family="Helvetica,sans-Serif" font-size="14.00" fill="green">Console</text>
</g>
<!-- Investigator&#45;&gt;Console -->
<g id="edge1" class="edge"><title>Investigator&#45;&gt;Console</title>
<path fill="none" stroke="black" d="M420.43,-1429.75C461.566,-1433.65 522.769,-1432.04 558,-1396 580.234,-1373.25 568.589,-1284.93 576,-1254 597.368,-1164.81 638.455,-1063.99 658.87,-1016.51"/>
<polygon fill="black" stroke="black" points="662.135,-1017.78 662.899,-1007.21 655.712,-1015 662.135,-1017.78"/>
<text text-anchor="middle" x="583" y="-1257.8" font-family="Times,serif" font-size="14.00">0</text>
</g>
<!-- Investigator&#45;&gt;Console -->
<g id="edge26" class="edge"><title>Investigator&#45;&gt;Console</title>
<path fill="none" stroke="black" d="M421.654,-1428.79C461.942,-1431.57 520.966,-1428.77 558,-1396 616.003,-1344.67 655.223,-1100.93 667.164,-1017.27"/>
<polygon fill="black" stroke="black" points="670.651,-1017.61 668.577,-1007.22 663.719,-1016.63 670.651,-1017.61"/>
<text text-anchor="middle" x="583" y="-1372.8" font-family="Times,serif" font-size="14.00">18</text>
</g>
<!-- /action/create -->
<g id="node4" class="node"><title>/action/create</title>
<polygon fill="blue" stroke="black" points="886.5,-674 788.5,-674 788.5,-638 886.5,-638 886.5,-674"/>
<text text-anchor="middle" x="837.5" y="-652.3" font-family="Helvetica,sans-Serif" font-size="14.00" fill="white">/action/create</text>
</g>
<!-- Console&#45;&gt;/action/create -->
<g id="edge2" class="edge"><title>Console&#45;&gt;/action/create</title>
<path fill="none" stroke="black" d="M677.235,-970.915C688.451,-925.386 721.965,-803.431 778,-716 786.086,-703.384 797.135,-691.207 807.454,-681.158"/>
<polygon fill="black" stroke="black" points="809.914,-683.649 814.786,-674.241 805.11,-678.557 809.914,-683.649"/>
<text text-anchor="middle" x="761" y="-761.8" font-family="Times,serif" font-size="14.00">1</text>
</g>
<!-- /action?id=xyz -->
<g id="node5" class="node"><title>/action?id=xyz</title>
<polygon fill="blue" stroke="black" points="889,-761 786,-761 786,-725 889,-725 889,-761"/>
<text text-anchor="middle" x="837.5" y="-739.3" font-family="Helvetica,sans-Serif" font-size="14.00" fill="white">/action?id=xyz</text>
</g>
<!-- Console&#45;&gt;/action?id=xyz -->
<g id="edge27" class="edge"><title>Console&#45;&gt;/action?id=xyz</title>
<path fill="none" stroke="black" d="M685.023,-970.911C713.546,-927.995 785.418,-819.857 818.868,-769.529"/>
<polygon fill="black" stroke="black" points="821.839,-771.381 824.46,-761.115 816.01,-767.506 821.839,-771.381"/>
<text text-anchor="middle" x="761" y="-869.8" font-family="Times,serif" font-size="14.00">18</text>
</g>
<!-- Legend -->
<g id="node3" class="node"><title>Legend</title>
<polygon fill="none" stroke="gray" points="558,-1387 196,-1387 196,-839 558,-839 558,-1387"/>
<text text-anchor="start" x="204" y="-1373.4" font-family="Helvetica,sans-Serif" font-size="12.00">===== Legend =====</text>
<text text-anchor="start" x="204" y="-1346.4" font-family="Helvetica,sans-Serif" font-size="12.00">0 &#45; generate signed action</text>
<text text-anchor="start" x="204" y="-1319.4" font-family="Helvetica,sans-Serif" font-size="12.00">1 &#45; HTTP POST action</text>
<text text-anchor="start" x="204" y="-1292.4" font-family="Helvetica,sans-Serif" font-size="12.00">2 &#45; Generate ID, init timestamps, verify signature, set status to &#39;init&#39;</text>
<text text-anchor="start" x="204" y="-1265.4" font-family="Helvetica,sans-Serif" font-size="12.00">3 &#45; Write action into database</text>
<text text-anchor="start" x="204" y="-1238.4" font-family="Helvetica,sans-Serif" font-size="12.00">4 &#45; Verify action timestamps</text>
<text text-anchor="start" x="204" y="-1211.4" font-family="Helvetica,sans-Serif" font-size="12.00">5 &#45; Find target agents, set status &#39;preparing&#39;, write to database</text>
<text text-anchor="start" x="204" y="-1184.4" font-family="Helvetica,sans-Serif" font-size="12.00">6 &#45; Generate one command per action into the scheduler spool</text>
<text text-anchor="start" x="204" y="-1157.4" font-family="Helvetica,sans-Serif" font-size="12.00">7 &#45; Process new commands from the scheduler spool</text>
<text text-anchor="start" x="204" y="-1130.4" font-family="Helvetica,sans-Serif" font-size="12.00">8 &#45; Write command to database, set status to &#39;sent&#39;</text>
<text text-anchor="start" x="204" y="-1103.4" font-family="Helvetica,sans-Serif" font-size="12.00">9 &#45; Publish command to mig.agt queues</text>
<text text-anchor="start" x="204" y="-1076.4" font-family="Helvetica,sans-Serif" font-size="12.00">10 &#45; Update action in database, set status to &#39;inflight&#39;</text>
<text text-anchor="start" x="204" y="-1049.4" font-family="Helvetica,sans-Serif" font-size="12.00">11 &#45; Push commands from relay to agents</text>
<text text-anchor="start" x="204" y="-1022.4" font-family="Helvetica,sans-Serif" font-size="12.00">12 &#45; Return commands results from agents to relay</text>
<text text-anchor="start" x="204" y="-995.4" font-family="Helvetica,sans-Serif" font-size="12.00">13 &#45; Push returned commands from relay to scheduler</text>
<text text-anchor="start" x="204" y="-968.4" font-family="Helvetica,sans-Serif" font-size="12.00">14 &#45; Process returned commands from scheduler spool</text>
<text text-anchor="start" x="204" y="-941.4" font-family="Helvetica,sans-Serif" font-size="12.00">15 &#45; Write results to database, set command status to &#39;success&#39;</text>
<text text-anchor="start" x="204" y="-914.4" font-family="Helvetica,sans-Serif" font-size="12.00">16 &#45; Notify action updater that command has finished</text>
<text text-anchor="start" x="204" y="-887.4" font-family="Helvetica,sans-Serif" font-size="12.00">17 &#45; When all commands are done, set action status to &#39;done&#39;</text>
<text text-anchor="start" x="204" y="-860.4" font-family="Helvetica,sans-Serif" font-size="12.00">18 &#45; Retrieve action results</text>
</g>
<!-- /action/create&#45;&gt;/action/create -->
<g id="edge3" class="edge"><title>/action/create&#45;&gt;/action/create</title>
<path fill="none" stroke="black" d="M823.751,-674.153C821.636,-683.539 826.219,-692 837.5,-692 844.375,-692 848.762,-688.858 850.662,-684.28"/>
<polygon fill="black" stroke="black" points="854.164,-684.339 851.249,-674.153 847.176,-683.933 854.164,-684.339"/>
<text text-anchor="middle" x="837.5" y="-695.8" font-family="Times,serif" font-size="14.00">2</text>
</g>
<!-- Database -->
<g id="node12" class="node"><title>Database</title>
<polygon fill="black" stroke="black" points="1023.4,-558 953.399,-558 949.399,-554 949.399,-486 1019.4,-486 1023.4,-490 1023.4,-558"/>
<polyline fill="none" stroke="black" points="1019.4,-554 949.399,-554 "/>
<polyline fill="none" stroke="black" points="1019.4,-554 1019.4,-486 "/>
<polyline fill="none" stroke="black" points="1019.4,-554 1023.4,-558 "/>
<text text-anchor="middle" x="986.399" y="-518.3" font-family="Helvetica,sans-Serif" font-size="14.00" fill="white">Database</text>
</g>
<!-- /action/create&#45;&gt;Database -->
<g id="edge4" class="edge"><title>/action/create&#45;&gt;Database</title>
<path fill="none" stroke="black" d="M878.813,-637.998C885.162,-634.421 891.454,-630.395 897,-626 918.384,-609.056 938.414,-586.316 953.983,-566.421"/>
<polygon fill="black" stroke="black" points="956.841,-568.446 960.156,-558.383 951.289,-564.182 956.841,-568.446"/>
<text text-anchor="middle" x="914" y="-620.8" font-family="Times,serif" font-size="14.00">3</text>
</g>
<!-- /action?id=xyz&#45;&gt;Database -->
<g id="edge28" class="edge"><title>/action?id=xyz&#45;&gt;Database</title>
<path fill="none" stroke="black" d="M885.846,-724.923C889.885,-722.294 893.686,-719.33 897,-716 938.055,-674.745 962.028,-610.973 974.413,-567.913"/>
<polygon fill="black" stroke="black" points="977.794,-568.82 977.099,-558.248 971.049,-566.946 977.794,-568.82"/>
<text text-anchor="middle" x="914" y="-707.8" font-family="Times,serif" font-size="14.00">18</text>
</g>
<!-- SchedulerSpool -->
<g id="node6" class="node"><title>SchedulerSpool</title>
<polygon fill="white" stroke="black" points="435,-518 323,-518 319,-514 319,-482 431,-482 435,-486 435,-518"/>
<polyline fill="none" stroke="black" points="431,-514 319,-514 "/>
<polyline fill="none" stroke="black" points="431,-514 431,-482 "/>
<polyline fill="none" stroke="black" points="431,-514 435,-518 "/>
<text text-anchor="middle" x="377" y="-496.3" font-family="Helvetica,sans-Serif" font-size="14.00">Scheduler Spool</text>
</g>
<!-- processNewAction -->
<g id="node7" class="node"><title>processNewAction</title>
<polygon fill="orange" stroke="black" points="736,-534 608,-534 608,-498 736,-498 736,-534"/>
<text text-anchor="middle" x="672" y="-512.3" font-family="Helvetica,sans-Serif" font-size="14.00">processNewAction</text>
</g>
<!-- SchedulerSpool&#45;&gt;processNewAction -->
<g id="edge5" class="edge"><title>SchedulerSpool&#45;&gt;processNewAction</title>
<path fill="none" stroke="black" d="M435.112,-505.842C474.625,-509.582 528.447,-514.082 576,-516 583.081,-516.286 590.462,-516.475 597.841,-516.593"/>
<polygon fill="black" stroke="black" points="597.835,-520.093 607.876,-516.712 597.918,-513.094 597.835,-520.093"/>
<text text-anchor="middle" x="583" y="-520.8" font-family="Times,serif" font-size="14.00">4</text>
</g>
<!-- sendCommands -->
<g id="node8" class="node"><title>sendCommands</title>
<polygon fill="orange" stroke="black" points="730,-480 614,-480 614,-444 730,-444 730,-480"/>
<text text-anchor="middle" x="672" y="-458.3" font-family="Helvetica,sans-Serif" font-size="14.00">sendCommands</text>
</g>
<!-- SchedulerSpool&#45;&gt;sendCommands -->
<g id="edge8" class="edge"><title>SchedulerSpool&#45;&gt;sendCommands</title>
<path fill="none" stroke="black" d="M435.187,-493.292C470.584,-489.07 516.956,-483.414 558,-478 572.763,-476.053 588.598,-473.87 603.602,-471.757"/>
<polygon fill="black" stroke="black" points="604.422,-475.176 613.833,-470.31 603.441,-468.245 604.422,-475.176"/>
<text text-anchor="middle" x="583" y="-479.8" font-family="Times,serif" font-size="14.00">7</text>
</g>
<!-- returnCommands -->
<g id="node10" class="node"><title>returnCommands</title>
<polygon fill="orange" stroke="black" points="733,-591 611,-591 611,-555 733,-555 733,-591"/>
<text text-anchor="middle" x="672" y="-569.3" font-family="Helvetica,sans-Serif" font-size="14.00">returnCommands</text>
</g>
<!-- SchedulerSpool&#45;&gt;returnCommands -->
<g id="edge22" class="edge"><title>SchedulerSpool&#45;&gt;returnCommands</title>
<path fill="none" stroke="black" d="M435.189,-514.248C482.653,-526.074 550.342,-542.938 601.033,-555.568"/>
<polygon fill="black" stroke="black" points="600.384,-559.013 610.934,-558.035 602.076,-552.221 600.384,-559.013"/>
<text text-anchor="middle" x="583" y="-555.8" font-family="Times,serif" font-size="14.00">14</text>
</g>
<!-- processNewAction&#45;&gt;SchedulerSpool -->
<g id="edge7" class="edge"><title>processNewAction&#45;&gt;SchedulerSpool</title>
<path fill="none" stroke="black" d="M607.572,-499.665C601.663,-498.585 595.739,-497.664 590,-497 541.863,-491.43 487.173,-492.382 445.398,-494.621"/>
<polygon fill="black" stroke="black" points="445.122,-491.131 435.339,-495.198 445.523,-498.12 445.122,-491.131"/>
<text text-anchor="middle" x="583" y="-500.8" font-family="Times,serif" font-size="14.00">6</text>
</g>
<!-- processNewAction&#45;&gt;Database -->
<g id="edge6" class="edge"><title>processNewAction&#45;&gt;Database</title>
<path fill="none" stroke="black" d="M723.348,-497.949C740.46,-492.674 759.847,-487.624 778,-485 830.345,-477.434 845.147,-474.586 897,-485 911.307,-487.873 926.187,-493.121 939.569,-498.779"/>
<polygon fill="black" stroke="black" points="938.455,-502.113 949.018,-502.943 941.278,-495.708 938.455,-502.113"/>
<text text-anchor="middle" x="837.5" y="-488.8" font-family="Times,serif" font-size="14.00">5</text>
</g>
<!-- processNewAction&#45;&gt;Database -->
<g id="edge11" class="edge"><title>processNewAction&#45;&gt;Database</title>
<path fill="none" stroke="black" d="M718.266,-497.9C724.32,-495.104 730.375,-492.107 736,-489 755.857,-478.033 756.344,-466.75 778,-460 828.493,-444.262 846.565,-444.076 897,-460 912.397,-464.861 927.44,-473.47 940.624,-482.754"/>
<polygon fill="black" stroke="black" points="938.876,-485.813 949.005,-488.92 943.024,-480.174 938.876,-485.813"/>
<text text-anchor="middle" x="837.5" y="-463.8" font-family="Times,serif" font-size="14.00">10</text>
</g>
<!-- sendCommands&#45;&gt;Database -->
<g id="edge9" class="edge"><title>sendCommands&#45;&gt;Database</title>
<path fill="none" stroke="black" d="M726.942,-443.978C747.167,-437.559 767.727,-431.531 778,-430 830.311,-422.206 848.341,-409.274 897,-430 920.151,-439.861 940.162,-459.087 955.262,-477.424"/>
<polygon fill="black" stroke="black" points="952.899,-480.079 961.848,-485.75 958.389,-475.736 952.899,-480.079"/>
<text text-anchor="middle" x="837.5" y="-433.8" font-family="Times,serif" font-size="14.00">8</text>
</g>
<!-- Relay -->
<g id="node13" class="node"><title>Relay</title>
<polygon fill="red" stroke="black" points="873.5,-333 801.5,-333 801.5,-329 797.5,-329 797.5,-325 801.5,-325 801.5,-269 797.5,-269 797.5,-265 801.5,-265 801.5,-261 873.5,-261 873.5,-333"/>
<polyline fill="none" stroke="black" points="801.5,-329 805.5,-329 805.5,-325 801.5,-325 "/>
<polyline fill="none" stroke="black" points="801.5,-269 805.5,-269 805.5,-265 801.5,-265 "/>
<text text-anchor="middle" x="837.5" y="-293.3" font-family="Helvetica,sans-Serif" font-size="14.00" fill="white">Relay</text>
</g>
<!-- sendCommands&#45;&gt;Relay -->
<g id="edge10" class="edge"><title>sendCommands&#45;&gt;Relay</title>
<path fill="none" stroke="black" d="M730.224,-445.501C732.311,-443.84 734.253,-442.012 736,-440 763.032,-408.87 730.658,-382.984 754,-349 763.436,-335.262 777.813,-324.401 791.937,-316.235"/>
<polygon fill="black" stroke="black" points="794.002,-319.097 801.127,-311.255 790.667,-312.942 794.002,-319.097"/>
<text text-anchor="middle" x="761" y="-352.8" font-family="Times,serif" font-size="14.00">9</text>
</g>
<!-- recvAgentResults -->
<g id="node9" class="node"><title>recvAgentResults</title>
<polygon fill="orange" stroke="black" points="146,-490 24,-490 24,-454 146,-454 146,-490"/>
<text text-anchor="middle" x="85" y="-468.3" font-family="Helvetica,sans-Serif" font-size="14.00">recvAgentResults</text>
</g>
<!-- recvAgentResults&#45;&gt;SchedulerSpool -->
<g id="edge21" class="edge"><title>recvAgentResults&#45;&gt;SchedulerSpool</title>
<path fill="none" stroke="black" d="M146.088,-477.802C193.484,-482.378 259.567,-488.758 308.728,-493.505"/>
<polygon fill="black" stroke="black" points="308.659,-497.014 318.949,-494.492 309.331,-490.047 308.659,-497.014"/>
<text text-anchor="middle" x="171" y="-484.8" font-family="Times,serif" font-size="14.00">13</text>
</g>
<!-- updateAction -->
<g id="node11" class="node"><title>updateAction</title>
<polygon fill="orange" stroke="black" points="885,-591 790,-591 790,-555 885,-555 885,-591"/>
<text text-anchor="middle" x="837.5" y="-569.3" font-family="Helvetica,sans-Serif" font-size="14.00">updateAction</text>
</g>
<!-- returnCommands&#45;&gt;updateAction -->
<g id="edge24" class="edge"><title>returnCommands&#45;&gt;updateAction</title>
<path fill="none" stroke="black" d="M733.417,-573C748.569,-573 764.771,-573 779.738,-573"/>
<polygon fill="black" stroke="black" points="779.874,-576.5 789.874,-573 779.874,-569.5 779.874,-576.5"/>
<text text-anchor="middle" x="761" y="-576.8" font-family="Times,serif" font-size="14.00">16</text>
</g>
<!-- returnCommands&#45;&gt;Database -->
<g id="edge23" class="edge"><title>returnCommands&#45;&gt;Database</title>
<path fill="none" stroke="black" d="M709.458,-554.884C729.23,-545.974 754.391,-536.08 778,-531 832.522,-519.269 896.909,-518.431 939.314,-519.604"/>
<polygon fill="black" stroke="black" points="939.228,-523.103 949.337,-519.93 939.456,-516.107 939.228,-523.103"/>
<text text-anchor="middle" x="837.5" y="-534.8" font-family="Times,serif" font-size="14.00">15</text>
</g>
<!-- updateAction&#45;&gt;Database -->
<g id="edge25" class="edge"><title>updateAction&#45;&gt;Database</title>
<path fill="none" stroke="black" d="M885.384,-556.723C902.651,-550.728 922.181,-543.948 939.372,-537.979"/>
<polygon fill="black" stroke="black" points="940.89,-541.158 949.188,-534.571 938.594,-534.545 940.89,-541.158"/>
<text text-anchor="middle" x="914" y="-553.8" font-family="Times,serif" font-size="14.00">17</text>
</g>
<!-- Relay&#45;&gt;recvAgentResults -->
<g id="edge20" class="edge"><title>Relay&#45;&gt;recvAgentResults</title>
<path fill="none" stroke="black" d="M801.389,-305.187C685.329,-332.25 312.557,-419.172 156.133,-455.646"/>
<polygon fill="black" stroke="black" points="155.092,-452.295 146.148,-457.975 156.681,-459.112 155.092,-452.295"/>
<text text-anchor="middle" x="583" y="-360.8" font-family="Times,serif" font-size="14.00">13</text>
</g>
<!-- agent1 -->
<g id="node14" class="node"><title>agent1</title>
<polygon fill="white" stroke="black" points="1033.09,-39.5623 986.399,-52 939.708,-39.5623 939.751,-19.4377 1033.05,-19.4377 1033.09,-39.5623"/>
<text text-anchor="middle" x="986.399" y="-30.3" font-family="Helvetica,sans-Serif" font-size="14.00">agent1</text>
</g>
<!-- Relay&#45;&gt;agent1 -->
<g id="edge12" class="edge"><title>Relay&#45;&gt;agent1</title>
<path fill="none" stroke="black" d="M843.597,-260.636C851.314,-215.365 869.265,-137.167 907,-81 916.674,-66.6007 932.381,-55.9289 947.205,-48.4268"/>
<polygon fill="black" stroke="black" points="948.705,-51.5891 956.259,-44.1602 945.721,-45.257 948.705,-51.5891"/>
<text text-anchor="middle" x="914" y="-84.8" font-family="Times,serif" font-size="14.00">11</text>
</g>
<!-- agent2 -->
<g id="node15" class="node"><title>agent2</title>
<polygon fill="white" stroke="black" points="1033.09,-201.562 986.399,-214 939.708,-201.562 939.751,-181.438 1033.05,-181.438 1033.09,-201.562"/>
<text text-anchor="middle" x="986.399" y="-192.3" font-family="Helvetica,sans-Serif" font-size="14.00">agent2</text>
</g>
<!-- Relay&#45;&gt;agent2 -->
<g id="edge13" class="edge"><title>Relay&#45;&gt;agent2</title>
<path fill="none" stroke="black" d="M873.686,-272.808C899.691,-254.928 934.575,-230.944 958.4,-214.563"/>
<polygon fill="black" stroke="black" points="960.383,-217.447 966.64,-208.898 956.417,-211.679 960.383,-217.447"/>
<text text-anchor="middle" x="914" y="-253.8" font-family="Times,serif" font-size="14.00">11</text>
</g>
<!-- agent3 -->
<g id="node16" class="node"><title>agent3</title>
<polygon fill="white" stroke="black" points="1033.09,-147.562 986.399,-160 939.708,-147.562 939.751,-127.438 1033.05,-127.438 1033.09,-147.562"/>
<text text-anchor="middle" x="986.399" y="-138.3" font-family="Helvetica,sans-Serif" font-size="14.00">agent3</text>
</g>
<!-- Relay&#45;&gt;agent3 -->
<g id="edge14" class="edge"><title>Relay&#45;&gt;agent3</title>
<path fill="none" stroke="black" d="M855.38,-260.971C867.524,-237.556 885.513,-207.343 907,-185 918.475,-173.068 933.994,-163.615 948.197,-156.646"/>
<polygon fill="black" stroke="black" points="949.69,-159.812 957.284,-152.425 946.74,-153.464 949.69,-159.812"/>
<text text-anchor="middle" x="914" y="-188.8" font-family="Times,serif" font-size="14.00">11</text>
</g>
<!-- agentX -->
<g id="node17" class="node"><title>agentX</title>
<polygon fill="white" stroke="black" points="1033.7,-93.5623 986.399,-106 939.101,-93.5623 939.145,-73.4377 1033.65,-73.4377 1033.7,-93.5623"/>
<text text-anchor="middle" x="986.399" y="-84.3" font-family="Helvetica,sans-Serif" font-size="14.00">agentX</text>
</g>
<!-- Relay&#45;&gt;agentX -->
<g id="edge15" class="edge"><title>Relay&#45;&gt;agentX</title>
<path fill="none" stroke="black" d="M841.805,-260.735C847.628,-218.293 863.58,-148.77 907,-109 913.348,-103.185 921.131,-98.9502 929.303,-95.8716"/>
<polygon fill="black" stroke="black" points="930.555,-99.1458 939.012,-92.7635 928.421,-92.4791 930.555,-99.1458"/>
<text text-anchor="middle" x="914" y="-112.8" font-family="Times,serif" font-size="14.00">11</text>
</g>
<!-- agent1&#45;&gt;Relay -->
<g id="edge16" class="edge"><title>agent1&#45;&gt;Relay</title>
<path fill="none" stroke="black" d="M939.628,-33.6494C927.788,-35.6797 915.887,-39.8933 907,-48 877.288,-75.1041 855.579,-186.505 845.248,-250.743"/>
<polygon fill="black" stroke="black" points="841.789,-250.205 843.688,-260.628 848.704,-251.296 841.789,-250.205"/>
<text text-anchor="middle" x="914" y="-51.8" font-family="Times,serif" font-size="14.00">12</text>
</g>
<!-- agent2&#45;&gt;Relay -->
<g id="edge17" class="edge"><title>agent2&#45;&gt;Relay</title>
<path fill="none" stroke="black" d="M968.722,-209.604C957.139,-219.642 941.891,-234.095 931,-249 925.137,-257.024 928.49,-262.468 921,-269 910.463,-278.189 896.778,-284.393 883.594,-288.569"/>
<polygon fill="black" stroke="black" points="882.335,-285.288 873.67,-291.384 884.245,-292.023 882.335,-285.288"/>
<text text-anchor="middle" x="914" y="-282.8" font-family="Times,serif" font-size="14.00">12</text>
</g>
<!-- agent3&#45;&gt;Relay -->
<g id="edge18" class="edge"><title>agent3&#45;&gt;Relay</title>
<path fill="none" stroke="black" d="M955.105,-151.863C946.329,-155.976 937.399,-161.571 931,-169 921.552,-179.969 928.047,-187.354 921,-200 910.087,-219.583 894.874,-238.872 880.481,-255.027"/>
<polygon fill="black" stroke="black" points="877.646,-252.942 873.504,-262.693 882.823,-257.653 877.646,-252.942"/>
<text text-anchor="middle" x="914" y="-224.8" font-family="Times,serif" font-size="14.00">12</text>
</g>
<!-- agentX&#45;&gt;Relay -->
<g id="edge19" class="edge"><title>agentX&#45;&gt;Relay</title>
<path fill="none" stroke="black" d="M956.972,-98.4596C947.994,-102.673 938.475,-108.176 931,-115 890.616,-151.869 865.312,-210.4 851.579,-251.094"/>
<polygon fill="black" stroke="black" points="848.195,-250.181 848.416,-260.774 854.849,-252.355 848.195,-250.181"/>
<text text-anchor="middle" x="914" y="-143.8" font-family="Times,serif" font-size="14.00">12</text>
</g>
</g>
</svg>
