<?xml version="1.0" encoding="UTF-8" standalone="no"?>
<!DOCTYPE svg PUBLIC "-//W3C//DTD SVG 1.1//EN"
 "http://www.w3.org/Graphics/SVG/1.1/DTD/svg11.dtd">
<!-- Generated by graphviz version 2.34.0 (20140110.0949)
 -->
<!-- Title: mig Pages: 1 -->
<svg width="1302pt" height="788pt"
 viewBox="0.00 0.00 1302.00 788.00" xmlns="http://www.w3.org/2000/svg" xmlns:xlink="http://www.w3.org/1999/xlink">
<g id="graph0" class="graph" transform="scale(1 1) rotate(0) translate(4 784)">
<title>mig</title>
<polygon fill="white" stroke="white" points="-4,4 -4,-784 1298,-784 1298,4 -4,4"/>
<g id="clust1" class="cluster"><title>cluster_investigator</title>
<polygon fill="white" stroke="white" points="8,-103 8,-704 472,-704 472,-103 8,-103"/>
<text text-anchor="middle" x="240" y="-688.8" font-family="Helvetica,sans-Serif" font-size="14.00">Investigators</text>
</g>
<g id="clust2" class="cluster"><title>cluster_platform</title>
<polygon fill="white" stroke="gray" points="504,-253 504,-772 1275,-772 1275,-253 504,-253"/>
<text text-anchor="middle" x="889.5" y="-756.8" font-family="Helvetica,sans-Serif" font-size="14.00">MIG Platform</text>
</g>
<g id="clust3" class="cluster"><title>cluster_api</title>
<polygon fill="white" stroke="gray" stroke-dasharray="5,2" points="521,-579 521,-741 641,-741 641,-579 521,-579"/>
<text text-anchor="middle" x="581" y="-725.8" font-family="Helvetica,sans-Serif" font-size="14.00" fill="orange">API</text>
</g>
<g id="clust4" class="cluster"><title>cluster_scheduler</title>
<polygon fill="white" stroke="gray" stroke-dasharray="5,2" points="512,-385 512,-571 1140,-571 1140,-385 512,-385"/>
<text text-anchor="middle" x="826" y="-555.8" font-family="Helvetica,sans-Serif" font-size="14.00" fill="green">Scheduler</text>
</g>
<g id="clust5" class="cluster"><title>cluster_agents</title>
<polygon fill="white" stroke="black" points="1174,-8 1174,-245 1286,-245 1286,-8 1174,-8"/>
<text text-anchor="middle" x="1230" y="-229.8" font-family="Helvetica,sans-Serif" font-size="14.00">MIG Agents</text>
</g>
<!-- Investigator -->
<g id="node1" class="node"><title>Investigator</title>
<polygon fill="blue" stroke="black" points="186.744,-637.049 189.885,-637.148 192.994,-637.295 196.057,-637.491 199.063,-637.735 201.999,-638.027 204.854,-638.364 207.617,-638.748 210.276,-639.176 212.823,-639.647 215.248,-640.161 217.543,-640.715 219.7,-641.308 221.712,-641.939 223.574,-642.605 225.279,-643.306 226.824,-644.039 228.206,-644.801 229.422,-645.592 230.471,-646.408 231.352,-647.248 232.065,-648.109 232.61,-648.989 232.991,-649.886 233.209,-650.797 233.268,-651.719 233.171,-652.65 232.923,-653.587 232.529,-654.529 231.994,-655.471 231.324,-656.413 230.526,-657.35 229.606,-658.281 228.57,-659.203 227.425,-660.114 226.179,-661.011 224.838,-661.891 223.41,-662.752 221.9,-663.592 220.317,-664.408 218.666,-665.199 216.953,-665.961 215.185,-666.694 213.368,-667.395 211.507,-668.061 209.607,-668.692 207.672,-669.285 205.708,-669.839 203.718,-670.353 201.706,-670.824 199.675,-671.252 197.628,-671.636 195.568,-671.973 193.497,-672.265 191.418,-672.509 189.331,-672.705 187.24,-672.852 185.145,-672.951 183.049,-673 180.951,-673 178.855,-672.951 176.76,-672.852 174.669,-672.705 172.582,-672.509 170.503,-672.265 168.432,-671.973 166.372,-671.636 164.325,-671.252 162.294,-670.824 160.282,-670.353 158.292,-669.839 156.328,-669.285 154.393,-668.692 152.493,-668.061 150.632,-667.395 148.815,-666.694 147.047,-665.961 145.334,-665.199 143.683,-664.408 142.1,-663.592 140.59,-662.752 139.162,-661.891 137.821,-661.011 136.575,-660.114 135.43,-659.203 134.394,-658.281 133.474,-657.35 132.676,-656.413 132.006,-655.471 131.471,-654.529 131.077,-653.587 130.829,-652.65 130.732,-651.719 130.791,-650.797 131.009,-649.886 131.39,-648.989 131.935,-648.109 132.648,-647.248 133.529,-646.408 134.578,-645.592 135.794,-644.801 137.176,-644.039 138.721,-643.306 140.426,-642.605 142.288,-641.939 144.3,-641.308 146.457,-640.715 148.752,-640.161 151.177,-639.647 153.724,-639.176 156.383,-638.748 159.146,-638.364 162.001,-638.027 164.937,-637.735 167.943,-637.491 171.006,-637.295 174.115,-637.148 177.256,-637.049 180.416,-637 183.584,-637 186.744,-637.049"/>
<text text-anchor="middle" x="182" y="-651.9" font-family="Helvetica,sans-Serif" font-size="12.00" fill="white">Investigator</text>
</g>
<!-- Console -->
<g id="node2" class="node"><title>Console</title>
<polygon fill="black" stroke="green" points="464,-654 398,-654 398,-618 464,-618 464,-654"/>
<text text-anchor="middle" x="431" y="-632.3" font-family="Helvetica,sans-Serif" font-size="14.00" fill="green">Console</text>
</g>
<!-- Investigator&#45;&gt;Console -->
<g id="edge1" class="edge"><title>Investigator&#45;&gt;Console</title>
<path fill="none" stroke="black" d="M233.384,-650.733C266.546,-646.963 310.579,-640.108 348,-628 356.51,-625.247 357.295,-621.055 366,-619 373.154,-617.311 380.727,-617.526 388.062,-618.8"/>
<polygon fill="black" stroke="black" points="387.321,-622.221 397.858,-621.113 388.93,-615.408 387.321,-622.221"/>
<text text-anchor="middle" x="373" y="-622.8" font-family="Times,serif" font-size="14.00">0</text>
</g>
<!-- Investigator&#45;&gt;Console -->
<g id="edge26" class="edge"><title>Investigator&#45;&gt;Console</title>
<path fill="none" stroke="black" d="M233.282,-651.132C278.76,-647.634 344.969,-642.541 387.765,-639.249"/>
<polygon fill="black" stroke="black" points="388.147,-642.73 397.849,-638.473 387.61,-635.751 388.147,-642.73"/>
<text text-anchor="middle" x="373" y="-643.8" font-family="Times,serif" font-size="14.00">18</text>
</g>
<!-- /action/create -->
<g id="node4" class="node"><title>/action/create</title>
<polygon fill="blue" stroke="black" points="630,-623 532,-623 532,-587 630,-587 630,-623"/>
<text text-anchor="middle" x="581" y="-601.3" font-family="Helvetica,sans-Serif" font-size="14.00" fill="white">/action/create</text>
</g>
<!-- Console&#45;&gt;/action/create -->
<g id="edge2" class="edge"><title>Console&#45;&gt;/action/create</title>
<path fill="none" stroke="black" d="M464.114,-629.273C481.059,-625.724 502.375,-621.259 522.089,-617.13"/>
<polygon fill="black" stroke="black" points="522.845,-620.548 531.915,-615.072 521.41,-613.696 522.845,-620.548"/>
<text text-anchor="middle" x="489" y="-628.8" font-family="Times,serif" font-size="14.00">1</text>
</g>
<!-- /action?id=xyz -->
<g id="node5" class="node"><title>/action?id=xyz</title>
<polygon fill="blue" stroke="black" points="632.5,-710 529.5,-710 529.5,-674 632.5,-674 632.5,-710"/>
<text text-anchor="middle" x="581" y="-688.3" font-family="Helvetica,sans-Serif" font-size="14.00" fill="white">/action?id=xyz</text>
</g>
<!-- Console&#45;&gt;/action?id=xyz -->
<g id="edge27" class="edge"><title>Console&#45;&gt;/action?id=xyz</title>
<path fill="none" stroke="black" d="M464.145,-649.279C476.554,-654.318 490.894,-660.035 504,-665 509.074,-666.922 514.353,-668.881 519.659,-670.822"/>
<polygon fill="black" stroke="black" points="518.607,-674.163 529.201,-674.283 520.994,-667.582 518.607,-674.163"/>
<text text-anchor="middle" x="489" y="-664.8" font-family="Times,serif" font-size="14.00">18</text>
</g>
<!-- Legend -->
<g id="node3" class="node"><title>Legend</title>
<polygon fill="none" stroke="gray" points="348,-619 16,-619 16,-111 348,-111 348,-619"/>
<text text-anchor="start" x="24" y="-606.2" font-family="Helvetica,sans-Serif" font-size="11.00">===== Legend =====</text>
<text text-anchor="start" x="24" y="-581.2" font-family="Helvetica,sans-Serif" font-size="11.00">0 &#45; generate signed action</text>
<text text-anchor="start" x="24" y="-556.2" font-family="Helvetica,sans-Serif" font-size="11.00">1 &#45; HTTP POST action</text>
<text text-anchor="start" x="24" y="-531.2" font-family="Helvetica,sans-Serif" font-size="11.00">2 &#45; Generate ID, init timestamps, verify signature, set status to &#39;init&#39;</text>
<text text-anchor="start" x="24" y="-506.2" font-family="Helvetica,sans-Serif" font-size="11.00">3 &#45; Write action into spool</text>
<text text-anchor="start" x="24" y="-481.2" font-family="Helvetica,sans-Serif" font-size="11.00">4 &#45; Verify timestamps</text>
<text text-anchor="start" x="24" y="-456.2" font-family="Helvetica,sans-Serif" font-size="11.00">5 &#45; Find target agents, set status &#39;preparing&#39;, write to database</text>
<text text-anchor="start" x="24" y="-431.2" font-family="Helvetica,sans-Serif" font-size="11.00">6 &#45; Generate commands</text>
<text text-anchor="start" x="24" y="-406.2" font-family="Helvetica,sans-Serif" font-size="11.00">7 &#45; Process new commands</text>
<text text-anchor="start" x="24" y="-381.2" font-family="Helvetica,sans-Serif" font-size="11.00">8 &#45; Write command to database, set status to &#39;sent&#39;</text>
<text text-anchor="start" x="24" y="-356.2" font-family="Helvetica,sans-Serif" font-size="11.00">9 &#45; Publish command to mig.agt queues</text>
<text text-anchor="start" x="24" y="-331.2" font-family="Helvetica,sans-Serif" font-size="11.00">10 &#45; Update action in database, set status to &#39;inflight&#39;</text>
<text text-anchor="start" x="24" y="-306.2" font-family="Helvetica,sans-Serif" font-size="11.00">11 &#45; Push commands to agents</text>
<text text-anchor="start" x="24" y="-281.2" font-family="Helvetica,sans-Serif" font-size="11.00">12 &#45; Return commands results</text>
<text text-anchor="start" x="24" y="-256.2" font-family="Helvetica,sans-Serif" font-size="11.00">13 &#45; Push returned commands to scheduler</text>
<text text-anchor="start" x="24" y="-231.2" font-family="Helvetica,sans-Serif" font-size="11.00">14 &#45; Process returned commands</text>
<text text-anchor="start" x="24" y="-206.2" font-family="Helvetica,sans-Serif" font-size="11.00">15 &#45; Write results to database, set command status to &#39;success&#39;</text>
<text text-anchor="start" x="24" y="-181.2" font-family="Helvetica,sans-Serif" font-size="11.00">16 &#45; Notify action updater that command has finished</text>
<text text-anchor="start" x="24" y="-156.2" font-family="Helvetica,sans-Serif" font-size="11.00">17 &#45; When all commands are done, set action status to &#39;done&#39;</text>
<text text-anchor="start" x="24" y="-131.2" font-family="Helvetica,sans-Serif" font-size="11.00">18 &#45; Retrieve action results</text>
</g>
<!-- /action/create&#45;&gt;/action/create -->
<g id="edge3" class="edge"><title>/action/create&#45;&gt;/action/create</title>
<path fill="none" stroke="black" d="M565.442,-623.153C563.048,-632.539 568.234,-641 581,-641 588.779,-641 593.744,-637.858 595.893,-633.28"/>
<polygon fill="black" stroke="black" points="599.396,-633.361 596.558,-623.153 592.411,-632.902 599.396,-633.361"/>
<text text-anchor="middle" x="581" y="-644.8" font-family="Times,serif" font-size="14.00">2</text>
</g>
<!-- SchedulerSpool -->
<g id="node6" class="node"><title>SchedulerSpool</title>
<polygon fill="white" stroke="black" points="808,-486 696,-486 692,-482 692,-450 804,-450 808,-454 808,-486"/>
<polyline fill="none" stroke="black" points="804,-482 692,-482 "/>
<polyline fill="none" stroke="black" points="804,-482 804,-450 "/>
<polyline fill="none" stroke="black" points="804,-482 808,-486 "/>
<text text-anchor="middle" x="750" y="-464.3" font-family="Helvetica,sans-Serif" font-size="14.00">Scheduler Spool</text>
</g>
<!-- /action/create&#45;&gt;SchedulerSpool -->
<g id="edge4" class="edge"><title>/action/create&#45;&gt;SchedulerSpool</title>
<path fill="none" stroke="black" d="M625.916,-586.831C631.682,-583.392 637.234,-579.452 642,-575 671.651,-547.301 660.614,-522.344 689.385,-493.209"/>
<polygon fill="black" stroke="black" points="692.111,-495.458 697.113,-486.118 687.379,-490.3 692.111,-495.458"/>
<text text-anchor="middle" x="667" y="-552.8" font-family="Times,serif" font-size="14.00">3</text>
</g>
<!-- Database -->
<g id="node12" class="node"><title>Database</title>
<polygon fill="black" stroke="black" points="1267,-526 1197,-526 1193,-522 1193,-454 1263,-454 1267,-458 1267,-526"/>
<polyline fill="none" stroke="black" points="1263,-522 1193,-522 "/>
<polyline fill="none" stroke="black" points="1263,-522 1263,-454 "/>
<polyline fill="none" stroke="black" points="1263,-522 1267,-526 "/>
<text text-anchor="middle" x="1230" y="-486.3" font-family="Helvetica,sans-Serif" font-size="14.00" fill="white">Database</text>
</g>
<!-- /action?id=xyz&#45;&gt;Database -->
<g id="edge28" class="edge"><title>/action?id=xyz&#45;&gt;Database</title>
<path fill="none" stroke="black" d="M629.475,-673.897C662.492,-662.914 707.801,-651 749,-651 749,-651 749,-651 1085,-651 1147.4,-651 1189.52,-582.972 1211.36,-535.356"/>
<polygon fill="black" stroke="black" points="1214.6,-536.691 1215.46,-526.132 1208.2,-533.85 1214.6,-536.691"/>
<text text-anchor="middle" x="922" y="-654.8" font-family="Times,serif" font-size="14.00">18</text>
</g>
<!-- processNewAction -->
<g id="node7" class="node"><title>processNewAction</title>
<polygon fill="orange" stroke="black" points="986,-539 858,-539 858,-503 986,-503 986,-539"/>
<text text-anchor="middle" x="922" y="-517.3" font-family="Helvetica,sans-Serif" font-size="14.00">processNewAction</text>
</g>
<!-- SchedulerSpool&#45;&gt;processNewAction -->
<g id="edge5" class="edge"><title>SchedulerSpool&#45;&gt;processNewAction</title>
<path fill="none" stroke="black" d="M800.188,-486.04C802.862,-487.313 805.482,-488.635 808,-490 816.675,-494.704 816.935,-499.099 826,-503 832.915,-505.976 840.323,-508.461 847.839,-510.537"/>
<polygon fill="black" stroke="black" points="847.196,-513.985 857.749,-513.037 848.909,-507.197 847.196,-513.985"/>
<text text-anchor="middle" x="833" y="-511.8" font-family="Times,serif" font-size="14.00">4</text>
</g>
<!-- sendCommands -->
<g id="node8" class="node"><title>sendCommands</title>
<polygon fill="orange" stroke="black" points="980,-429 864,-429 864,-393 980,-393 980,-429"/>
<text text-anchor="middle" x="922" y="-407.3" font-family="Helvetica,sans-Serif" font-size="14.00">sendCommands</text>
</g>
<!-- SchedulerSpool&#45;&gt;sendCommands -->
<g id="edge8" class="edge"><title>SchedulerSpool&#45;&gt;sendCommands</title>
<path fill="none" stroke="black" d="M800.892,-449.872C803.331,-448.636 805.714,-447.344 808,-446 816.977,-440.722 816.628,-435.54 826,-431 834.669,-426.801 844.201,-423.48 853.78,-420.854"/>
<polygon fill="black" stroke="black" points="854.893,-424.183 863.744,-418.362 853.194,-417.393 854.893,-424.183"/>
<text text-anchor="middle" x="833" y="-434.8" font-family="Times,serif" font-size="14.00">7</text>
</g>
<!-- returnCommands -->
<g id="node10" class="node"><title>returnCommands</title>
<polygon fill="orange" stroke="black" points="983,-483 861,-483 861,-447 983,-447 983,-483"/>
<text text-anchor="middle" x="922" y="-461.3" font-family="Helvetica,sans-Serif" font-size="14.00">returnCommands</text>
</g>
<!-- SchedulerSpool&#45;&gt;returnCommands -->
<g id="edge22" class="edge"><title>SchedulerSpool&#45;&gt;returnCommands</title>
<path fill="none" stroke="black" d="M808.077,-452.837C814.094,-451.678 820.149,-450.692 826,-450 834.016,-449.052 842.393,-448.996 850.707,-449.531"/>
<polygon fill="black" stroke="black" points="850.513,-453.027 860.791,-450.454 851.152,-446.056 850.513,-453.027"/>
<text text-anchor="middle" x="833" y="-453.8" font-family="Times,serif" font-size="14.00">14</text>
</g>
<!-- processNewAction&#45;&gt;SchedulerSpool -->
<g id="edge7" class="edge"><title>processNewAction&#45;&gt;SchedulerSpool</title>
<path fill="none" stroke="black" d="M881.853,-502.992C861.748,-493.764 841.19,-484.372 840,-484 832.916,-481.784 825.413,-479.841 817.887,-478.145"/>
<polygon fill="black" stroke="black" points="818.521,-474.702 808.013,-476.056 817.072,-481.55 818.521,-474.702"/>
<text text-anchor="middle" x="833" y="-487.8" font-family="Times,serif" font-size="14.00">6</text>
</g>
<!-- processNewAction&#45;&gt;Database -->
<g id="edge6" class="edge"><title>processNewAction&#45;&gt;Database</title>
<path fill="none" stroke="black" d="M973.093,-539.095C1017.71,-552.493 1084.35,-565.77 1140,-549 1155.58,-544.305 1170.94,-535.894 1184.4,-526.866"/>
<polygon fill="black" stroke="black" points="1186.76,-529.481 1192.95,-520.878 1182.75,-523.747 1186.76,-529.481"/>
<text text-anchor="middle" x="1084" y="-560.8" font-family="Times,serif" font-size="14.00">5</text>
</g>
<!-- processNewAction&#45;&gt;Database -->
<g id="edge11" class="edge"><title>processNewAction&#45;&gt;Database</title>
<path fill="none" stroke="black" d="M962.337,-502.899C983.645,-494.083 1010.72,-484.445 1036,-480 1085.6,-471.28 1143.38,-476.222 1182.7,-481.804"/>
<polygon fill="black" stroke="black" points="1182.37,-485.294 1192.78,-483.306 1183.4,-478.37 1182.37,-485.294"/>
<text text-anchor="middle" x="1084" y="-483.8" font-family="Times,serif" font-size="14.00">10</text>
</g>
<!-- sendCommands&#45;&gt;Database -->
<g id="edge9" class="edge"><title>sendCommands&#45;&gt;Database</title>
<path fill="none" stroke="black" d="M980.382,-398.733C1025.38,-391.782 1088.76,-387.993 1140,-408 1160.52,-416.012 1179.16,-431.215 1194.02,-446.375"/>
<polygon fill="black" stroke="black" points="1191.59,-448.906 1201,-453.782 1196.69,-444.104 1191.59,-448.906"/>
<text text-anchor="middle" x="1084" y="-411.8" font-family="Times,serif" font-size="14.00">8</text>
</g>
<!-- Relay -->
<g id="node13" class="node"><title>Relay</title>
<polygon fill="red" stroke="black" points="1120,-333 1048,-333 1048,-329 1044,-329 1044,-325 1048,-325 1048,-269 1044,-269 1044,-265 1048,-265 1048,-261 1120,-261 1120,-333"/>
<polyline fill="none" stroke="black" points="1048,-329 1052,-329 1052,-325 1048,-325 "/>
<polyline fill="none" stroke="black" points="1048,-269 1052,-269 1052,-265 1048,-265 "/>
<text text-anchor="middle" x="1084" y="-293.3" font-family="Helvetica,sans-Serif" font-size="14.00" fill="white">Relay</text>
</g>
<!-- sendCommands&#45;&gt;Relay -->
<g id="edge10" class="edge"><title>sendCommands&#45;&gt;Relay</title>
<path fill="none" stroke="black" d="M980.264,-393.576C982.283,-392.166 984.207,-390.644 986,-389 1000.37,-375.827 991.355,-363.838 1004,-349 1013.78,-337.526 1026.7,-327.593 1039.26,-319.573"/>
<polygon fill="black" stroke="black" points="1041.14,-322.526 1047.85,-314.33 1037.49,-316.551 1041.14,-322.526"/>
<text text-anchor="middle" x="1011" y="-352.8" font-family="Times,serif" font-size="14.00">9</text>
</g>
<!-- recvAgentResults -->
<g id="node9" class="node"><title>recvAgentResults</title>
<polygon fill="orange" stroke="black" points="642,-458 520,-458 520,-422 642,-422 642,-458"/>
<text text-anchor="middle" x="581" y="-436.3" font-family="Helvetica,sans-Serif" font-size="14.00">recvAgentResults</text>
</g>
<!-- recvAgentResults&#45;&gt;SchedulerSpool -->
<g id="edge21" class="edge"><title>recvAgentResults&#45;&gt;SchedulerSpool</title>
<path fill="none" stroke="black" d="M642.291,-450.109C655.171,-452.268 668.851,-454.562 681.967,-456.761"/>
<polygon fill="black" stroke="black" points="681.423,-460.218 691.864,-458.42 682.58,-453.315 681.423,-460.218"/>
<text text-anchor="middle" x="667" y="-458.8" font-family="Times,serif" font-size="14.00">13</text>
</g>
<!-- updateAction -->
<g id="node11" class="node"><title>updateAction</title>
<polygon fill="orange" stroke="black" points="1131.5,-540 1036.5,-540 1036.5,-504 1131.5,-504 1131.5,-540"/>
<text text-anchor="middle" x="1084" y="-518.3" font-family="Helvetica,sans-Serif" font-size="14.00">updateAction</text>
</g>
<!-- returnCommands&#45;&gt;updateAction -->
<g id="edge24" class="edge"><title>returnCommands&#45;&gt;updateAction</title>
<path fill="none" stroke="black" d="M973.625,-483.035C990.542,-489.062 1009.49,-495.814 1026.81,-501.982"/>
<polygon fill="black" stroke="black" points="1025.64,-505.282 1036.24,-505.341 1027.99,-498.688 1025.64,-505.282"/>
<text text-anchor="middle" x="1011" y="-502.8" font-family="Times,serif" font-size="14.00">16</text>
</g>
<!-- returnCommands&#45;&gt;Database -->
<g id="edge23" class="edge"><title>returnCommands&#45;&gt;Database</title>
<path fill="none" stroke="black" d="M970.354,-446.973C1014.86,-432.658 1082.96,-417.547 1140,-434 1155.4,-438.441 1170.7,-446.419 1184.16,-454.988"/>
<polygon fill="black" stroke="black" points="1182.45,-458.058 1192.72,-460.673 1186.33,-452.226 1182.45,-458.058"/>
<text text-anchor="middle" x="1084" y="-437.8" font-family="Times,serif" font-size="14.00">15</text>
</g>
<!-- updateAction&#45;&gt;Database -->
<g id="edge25" class="edge"><title>updateAction&#45;&gt;Database</title>
<path fill="none" stroke="black" d="M1131.75,-511.611C1148.21,-507.953 1166.68,-503.848 1183.07,-500.206"/>
<polygon fill="black" stroke="black" points="1183.97,-503.592 1192.97,-498.006 1182.45,-496.759 1183.97,-503.592"/>
<text text-anchor="middle" x="1157" y="-510.8" font-family="Times,serif" font-size="14.00">17</text>
</g>
<!-- Relay&#45;&gt;recvAgentResults -->
<g id="edge20" class="edge"><title>Relay&#45;&gt;recvAgentResults</title>
<path fill="none" stroke="black" d="M1047.76,-307.06C965.772,-330.46 761.001,-388.908 652.323,-419.928"/>
<polygon fill="black" stroke="black" points="651.088,-416.641 642.432,-422.751 653.009,-423.372 651.088,-416.641"/>
<text text-anchor="middle" x="833" y="-374.8" font-family="Times,serif" font-size="14.00">13</text>
</g>
<!-- agent1 -->
<g id="node14" class="node"><title>agent1</title>
<polygon fill="white" stroke="black" points="1276.69,-147.562 1230,-160 1183.31,-147.562 1183.35,-127.438 1276.65,-127.438 1276.69,-147.562"/>
<text text-anchor="middle" x="1230" y="-138.3" font-family="Helvetica,sans-Serif" font-size="14.00">agent1</text>
</g>
<!-- Relay&#45;&gt;agent1 -->
<g id="edge12" class="edge"><title>Relay&#45;&gt;agent1</title>
<path fill="none" stroke="black" d="M1100.66,-260.931C1112.03,-237.498 1129.06,-207.281 1150,-185 1161.4,-172.865 1177.01,-163.378 1191.35,-156.439"/>
<polygon fill="black" stroke="black" points="1192.89,-159.585 1200.53,-152.245 1189.98,-153.218 1192.89,-159.585"/>
<text text-anchor="middle" x="1157" y="-188.8" font-family="Times,serif" font-size="14.00">11</text>
</g>
<!-- agent2 -->
<g id="node15" class="node"><title>agent2</title>
<polygon fill="white" stroke="black" points="1276.69,-93.5623 1230,-106 1183.31,-93.5623 1183.35,-73.4377 1276.65,-73.4377 1276.69,-93.5623"/>
<text text-anchor="middle" x="1230" y="-84.3" font-family="Helvetica,sans-Serif" font-size="14.00">agent2</text>
</g>
<!-- Relay&#45;&gt;agent2 -->
<g id="edge13" class="edge"><title>Relay&#45;&gt;agent2</title>
<path fill="none" stroke="black" d="M1087.56,-260.763C1092.53,-218.348 1107.12,-148.852 1150,-109 1156.57,-102.893 1164.71,-98.5211 1173.25,-95.4003"/>
<polygon fill="black" stroke="black" points="1174.48,-98.6844 1182.99,-92.3826 1172.41,-91.9978 1174.48,-98.6844"/>
<text text-anchor="middle" x="1157" y="-112.8" font-family="Times,serif" font-size="14.00">11</text>
</g>
<!-- agent3 -->
<g id="node16" class="node"><title>agent3</title>
<polygon fill="white" stroke="black" points="1276.69,-39.5623 1230,-52 1183.31,-39.5623 1183.35,-19.4377 1276.65,-19.4377 1276.69,-39.5623"/>
<text text-anchor="middle" x="1230" y="-30.3" font-family="Helvetica,sans-Serif" font-size="14.00">agent3</text>
</g>
<!-- Relay&#45;&gt;agent3 -->
<g id="edge14" class="edge"><title>Relay&#45;&gt;agent3</title>
<path fill="none" stroke="black" d="M1089.66,-260.953C1096.8,-216.045 1113.65,-138.367 1150,-82 1159.58,-67.1452 1175.54,-56.1876 1190.62,-48.5234"/>
<polygon fill="black" stroke="black" points="1192.28,-51.6089 1199.82,-44.1716 1189.29,-45.28 1192.28,-51.6089"/>
<text text-anchor="middle" x="1157" y="-85.8" font-family="Times,serif" font-size="14.00">11</text>
</g>
<!-- agentX -->
<g id="node17" class="node"><title>agentX</title>
<polygon fill="white" stroke="black" points="1277.3,-201.562 1230,-214 1182.7,-201.562 1182.75,-181.438 1277.25,-181.438 1277.3,-201.562"/>
<text text-anchor="middle" x="1230" y="-192.3" font-family="Helvetica,sans-Serif" font-size="14.00">agentX</text>
</g>
<!-- Relay&#45;&gt;agentX -->
<g id="edge15" class="edge"><title>Relay&#45;&gt;agentX</title>
<path fill="none" stroke="black" d="M1120.31,-294.762C1135.35,-292.145 1152.14,-286.789 1164,-276 1173.47,-267.391 1166.99,-259.709 1174,-249 1182.1,-236.62 1193.58,-224.965 1203.97,-215.754"/>
<polygon fill="black" stroke="black" points="1206.29,-218.373 1211.62,-209.215 1201.74,-213.052 1206.29,-218.373"/>
<text text-anchor="middle" x="1157" y="-288.8" font-family="Times,serif" font-size="14.00">11</text>
</g>
<!-- agent1&#45;&gt;Relay -->
<g id="edge16" class="edge"><title>agent1&#45;&gt;Relay</title>
<path fill="none" stroke="black" d="M1198.66,-151.668C1189.7,-155.79 1180.54,-161.438 1174,-169 1164.53,-179.948 1170.91,-187.28 1164,-200 1153.93,-218.526 1140.14,-236.95 1126.9,-252.685"/>
<polygon fill="black" stroke="black" points="1123.91,-250.791 1120.04,-260.655 1129.22,-255.355 1123.91,-250.791"/>
<text text-anchor="middle" x="1157" y="-224.8" font-family="Times,serif" font-size="14.00">12</text>
</g>
<!-- agent2&#45;&gt;Relay -->
<g id="edge17" class="edge"><title>agent2&#45;&gt;Relay</title>
<path fill="none" stroke="black" d="M1200.5,-98.2273C1191.33,-102.45 1181.6,-108.017 1174,-115 1134.05,-151.724 1109.93,-210.285 1097.07,-251.025"/>
<polygon fill="black" stroke="black" points="1093.68,-250.131 1094.11,-260.717 1100.38,-252.172 1093.68,-250.131"/>
<text text-anchor="middle" x="1157" y="-143.8" font-family="Times,serif" font-size="14.00">12</text>
</g>
<!-- agent3&#45;&gt;Relay -->
<g id="edge18" class="edge"><title>agent3&#45;&gt;Relay</title>
<path fill="none" stroke="black" d="M1183.19,-34.0698C1171.12,-36.2243 1158.98,-40.6166 1150,-49 1120.88,-76.1897 1100.7,-186.643 1091.2,-250.601"/>
<polygon fill="black" stroke="black" points="1087.68,-250.429 1089.71,-260.828 1094.61,-251.436 1087.68,-250.429"/>
<text text-anchor="middle" x="1157" y="-52.8" font-family="Times,serif" font-size="14.00">12</text>
</g>
<!-- agentX&#45;&gt;Relay -->
<g id="edge19" class="edge"><title>agentX&#45;&gt;Relay</title>
<path fill="none" stroke="black" d="M1210.41,-209.042C1189.8,-223.494 1155.87,-247.295 1128.49,-266.497"/>
<polygon fill="black" stroke="black" points="1126.4,-263.685 1120.23,-272.293 1130.42,-269.416 1126.4,-263.685"/>
<text text-anchor="middle" x="1157" y="-253.8" font-family="Times,serif" font-size="14.00">12</text>
</g>
</g>
</svg>
