<?xml version="1.0" encoding="UTF-8" standalone="no"?>
<!DOCTYPE svg PUBLIC "-//W3C//DTD SVG 1.1//EN"
 "http://www.w3.org/Graphics/SVG/1.1/DTD/svg11.dtd">
<!-- Generated by graphviz version 2.38.0 (20140413.2041)
 -->
<!-- Title: mig Pages: 1 -->
<svg width="1330pt" height="949pt"
 viewBox="0.00 0.00 1329.80 949.00" xmlns="http://www.w3.org/2000/svg" xmlns:xlink="http://www.w3.org/1999/xlink">
<g id="graph0" class="graph" transform="scale(1 1) rotate(0) translate(4 945)">
<title>mig</title>
<polygon fill="white" stroke="none" points="-4,4 -4,-945 1325.8,-945 1325.8,4 -4,4"/>
<g id="clust1" class="cluster"><title>cluster_investigator</title>
<polygon fill="white" stroke="white" points="8,-8 8,-649 502,-649 502,-8 8,-8"/>
<text text-anchor="middle" x="255" y="-633.8" font-family="Helvetica,sans-Serif" font-size="14.00">Investigators</text>
</g>
<g id="clust2" class="cluster"><title>cluster_platform</title>
<polygon fill="white" stroke="gray" points="534,-524 534,-933 1303.4,-933 1303.4,-524 534,-524"/>
<text text-anchor="middle" x="918.7" y="-917.8" font-family="Helvetica,sans-Serif" font-size="14.00">MIG Platform</text>
</g>
<g id="clust3" class="cluster"><title>cluster_api</title>
<polygon fill="white" stroke="gray" stroke-dasharray="5,2" points="551.5,-532 551.5,-694 670.5,-694 670.5,-532 551.5,-532"/>
<text text-anchor="middle" x="611" y="-678.8" font-family="Helvetica,sans-Serif" font-size="14.00" fill="orange">API</text>
</g>
<g id="clust4" class="cluster"><title>cluster_scheduler</title>
<polygon fill="white" stroke="gray" stroke-dasharray="5,2" points="542,-702 542,-888 1169,-888 1169,-702 542,-702"/>
<text text-anchor="middle" x="855.5" y="-872.8" font-family="Helvetica,sans-Serif" font-size="14.00" fill="green">Scheduler</text>
</g>
<g id="clust5" class="cluster"><title>cluster_agents</title>
<polygon fill="white" stroke="black" points="1203,-279 1203,-516 1313.8,-516 1313.8,-279 1203,-279"/>
<text text-anchor="middle" x="1258.4" y="-500.8" font-family="Helvetica,sans-Serif" font-size="14.00">MIG Agents</text>
</g>
<!-- Investigator -->
<g id="node1" class="node"><title>Investigator</title>
<polygon fill="blue" stroke="black" points="201.744,-582.049 204.885,-582.148 207.994,-582.295 211.057,-582.491 214.063,-582.735 216.999,-583.027 219.854,-583.364 222.617,-583.748 225.276,-584.176 227.823,-584.647 230.248,-585.161 232.543,-585.715 234.7,-586.308 236.712,-586.939 238.574,-587.605 240.279,-588.306 241.824,-589.039 243.206,-589.801 244.422,-590.592 245.471,-591.408 246.352,-592.248 247.065,-593.109 247.61,-593.989 247.991,-594.886 248.209,-595.797 248.268,-596.719 248.171,-597.65 247.923,-598.587 247.529,-599.529 246.994,-600.471 246.324,-601.413 245.526,-602.35 244.606,-603.281 243.57,-604.203 242.425,-605.114 241.179,-606.011 239.838,-606.891 238.41,-607.752 236.9,-608.592 235.317,-609.408 233.666,-610.199 231.953,-610.961 230.185,-611.694 228.368,-612.395 226.507,-613.061 224.607,-613.692 222.672,-614.285 220.708,-614.839 218.718,-615.353 216.706,-615.824 214.675,-616.252 212.628,-616.636 210.568,-616.973 208.497,-617.265 206.418,-617.509 204.331,-617.705 202.24,-617.852 200.145,-617.951 198.049,-618 195.951,-618 193.855,-617.951 191.76,-617.852 189.669,-617.705 187.582,-617.509 185.503,-617.265 183.432,-616.973 181.372,-616.636 179.325,-616.252 177.294,-615.824 175.282,-615.353 173.292,-614.839 171.328,-614.285 169.393,-613.692 167.493,-613.061 165.632,-612.395 163.815,-611.694 162.047,-610.961 160.334,-610.199 158.683,-609.408 157.1,-608.592 155.59,-607.752 154.162,-606.891 152.821,-606.011 151.575,-605.114 150.43,-604.203 149.394,-603.281 148.474,-602.35 147.676,-601.413 147.006,-600.471 146.471,-599.529 146.077,-598.587 145.829,-597.65 145.732,-596.719 145.791,-595.797 146.009,-594.886 146.39,-593.989 146.935,-593.109 147.648,-592.248 148.529,-591.408 149.578,-590.592 150.794,-589.801 152.176,-589.039 153.721,-588.306 155.426,-587.605 157.288,-586.939 159.3,-586.308 161.457,-585.715 163.752,-585.161 166.177,-584.647 168.724,-584.176 171.383,-583.748 174.146,-583.364 177.001,-583.027 179.937,-582.735 182.943,-582.491 186.006,-582.295 189.115,-582.148 192.256,-582.049 195.416,-582 198.584,-582 201.744,-582.049"/>
<text text-anchor="middle" x="197" y="-596.9" font-family="Helvetica,sans-Serif" font-size="12.00" fill="white">Investigator</text>
</g>
<!-- Console -->
<g id="node2" class="node"><title>Console</title>
<polygon fill="black" stroke="green" points="494,-599 428,-599 428,-563 494,-563 494,-599"/>
<text text-anchor="middle" x="461" y="-577.3" font-family="Helvetica,sans-Serif" font-size="14.00" fill="green">Console</text>
</g>
<!-- Investigator&#45;&gt;Console -->
<g id="edge1" class="edge"><title>Investigator&#45;&gt;Console</title>
<path fill="none" stroke="black" d="M248.229,-596.718C284.871,-593.308 335.367,-586.481 378,-573 386.528,-570.303 387.295,-566.055 396,-564 403.154,-562.311 410.727,-562.526 418.062,-563.8"/>
<polygon fill="black" stroke="black" points="417.321,-567.221 427.858,-566.113 418.93,-560.408 417.321,-567.221"/>
<text text-anchor="middle" x="403" y="-567.8" font-family="Times,serif" font-size="14.00">0</text>
</g>
<!-- Investigator&#45;&gt;Console -->
<g id="edge27" class="edge"><title>Investigator&#45;&gt;Console</title>
<path fill="none" stroke="black" d="M248.206,-596.359C297.384,-592.793 371.483,-587.419 417.735,-584.065"/>
<polygon fill="black" stroke="black" points="418.007,-587.555 427.728,-583.34 417.501,-580.573 418.007,-587.555"/>
<text text-anchor="middle" x="403" y="-589.8" font-family="Times,serif" font-size="14.00">18</text>
</g>
<!-- /action/create -->
<g id="node4" class="node"><title>/action/create</title>
<polygon fill="blue" stroke="black" points="660,-630 562,-630 562,-594 660,-594 660,-630"/>
<text text-anchor="middle" x="611" y="-608.3" font-family="Helvetica,sans-Serif" font-size="14.00" fill="white">/action/create</text>
</g>
<!-- Console&#45;&gt;/action/create -->
<g id="edge2" class="edge"><title>Console&#45;&gt;/action/create</title>
<path fill="none" stroke="black" d="M494.114,-587.727C511.059,-591.276 532.375,-595.741 552.089,-599.87"/>
<polygon fill="black" stroke="black" points="551.41,-603.304 561.915,-601.928 552.845,-596.452 551.41,-603.304"/>
<text text-anchor="middle" x="519" y="-597.8" font-family="Times,serif" font-size="14.00">1</text>
</g>
<!-- /action?id=xyz -->
<g id="node5" class="node"><title>/action?id=xyz</title>
<polygon fill="blue" stroke="black" points="662.5,-576 559.5,-576 559.5,-540 662.5,-540 662.5,-576"/>
<text text-anchor="middle" x="611" y="-554.3" font-family="Helvetica,sans-Serif" font-size="14.00" fill="white">/action?id=xyz</text>
</g>
<!-- Console&#45;&gt;/action?id=xyz -->
<g id="edge28" class="edge"><title>Console&#45;&gt;/action?id=xyz</title>
<path fill="none" stroke="black" d="M494.219,-574.234C500.121,-573.086 506.236,-571.958 512,-571 523.971,-569.011 536.804,-567.129 549.111,-565.447"/>
<polygon fill="black" stroke="black" points="549.848,-568.88 559.295,-564.083 548.918,-561.942 549.848,-568.88"/>
<text text-anchor="middle" x="519" y="-574.8" font-family="Times,serif" font-size="14.00">18</text>
</g>
<!-- Legend -->
<g id="node3" class="node"><title>Legend</title>
<polygon fill="none" stroke="gray" points="378,-564 16,-564 16,-16 378,-16 378,-564"/>
<text text-anchor="start" x="24" y="-550.4" font-family="Helvetica,sans-Serif" font-size="12.00">===== Legend =====</text>
<text text-anchor="start" x="24" y="-523.4" font-family="Helvetica,sans-Serif" font-size="12.00">0 &#45; generate signed action</text>
<text text-anchor="start" x="24" y="-496.4" font-family="Helvetica,sans-Serif" font-size="12.00">1 &#45; HTTP POST action</text>
<text text-anchor="start" x="24" y="-469.4" font-family="Helvetica,sans-Serif" font-size="12.00">2 &#45; Generate ID, init timestamps, verify signature, set status to &#39;init&#39;</text>
<text text-anchor="start" x="24" y="-442.4" font-family="Helvetica,sans-Serif" font-size="12.00">3 &#45; Write action into database and scheduler spool</text>
<text text-anchor="start" x="24" y="-415.4" font-family="Helvetica,sans-Serif" font-size="12.00">4 &#45; Verify action timestamps</text>
<text text-anchor="start" x="24" y="-388.4" font-family="Helvetica,sans-Serif" font-size="12.00">5 &#45; Find target agents, set status &#39;preparing&#39;, write to database</text>
<text text-anchor="start" x="24" y="-361.4" font-family="Helvetica,sans-Serif" font-size="12.00">6 &#45; Generate one command per action into the scheduler spool</text>
<text text-anchor="start" x="24" y="-334.4" font-family="Helvetica,sans-Serif" font-size="12.00">7 &#45; Process new commands from the scheduler spool</text>
<text text-anchor="start" x="24" y="-307.4" font-family="Helvetica,sans-Serif" font-size="12.00">8 &#45; Write command to database, set status to &#39;sent&#39;</text>
<text text-anchor="start" x="24" y="-280.4" font-family="Helvetica,sans-Serif" font-size="12.00">9 &#45; Publish command to mig.agt queues</text>
<text text-anchor="start" x="24" y="-253.4" font-family="Helvetica,sans-Serif" font-size="12.00">10 &#45; Update action in database, set status to &#39;inflight&#39;</text>
<text text-anchor="start" x="24" y="-226.4" font-family="Helvetica,sans-Serif" font-size="12.00">11 &#45; Push commands from relay to agents</text>
<text text-anchor="start" x="24" y="-199.4" font-family="Helvetica,sans-Serif" font-size="12.00">12 &#45; Return commands results from agents to relay</text>
<text text-anchor="start" x="24" y="-172.4" font-family="Helvetica,sans-Serif" font-size="12.00">13 &#45; Push returned commands from relay to scheduler</text>
<text text-anchor="start" x="24" y="-145.4" font-family="Helvetica,sans-Serif" font-size="12.00">14 &#45; Process returned commands from scheduler spool</text>
<text text-anchor="start" x="24" y="-118.4" font-family="Helvetica,sans-Serif" font-size="12.00">15 &#45; Write results to database, set command status to &#39;success&#39;</text>
<text text-anchor="start" x="24" y="-91.4" font-family="Helvetica,sans-Serif" font-size="12.00">16 &#45; Notify action updater that command has finished</text>
<text text-anchor="start" x="24" y="-64.4" font-family="Helvetica,sans-Serif" font-size="12.00">17 &#45; When all commands are done, set action status to &#39;done&#39;</text>
<text text-anchor="start" x="24" y="-37.4" font-family="Helvetica,sans-Serif" font-size="12.00">18 &#45; Retrieve action results</text>
</g>
<!-- /action/create&#45;&gt;/action/create -->
<g id="edge3" class="edge"><title>/action/create&#45;&gt;/action/create</title>
<path fill="none" stroke="black" d="M595.442,-630.153C593.048,-639.539 598.234,-648 611,-648 618.779,-648 623.744,-644.858 625.893,-640.28"/>
<polygon fill="black" stroke="black" points="629.396,-640.361 626.558,-630.153 622.411,-639.902 629.396,-640.361"/>
<text text-anchor="middle" x="611" y="-651.8" font-family="Times,serif" font-size="14.00">2</text>
</g>
<!-- SchedulerSpool -->
<g id="node6" class="node"><title>SchedulerSpool</title>
<polygon fill="white" stroke="black" points="838,-779 726,-779 722,-775 722,-743 834,-743 838,-747 838,-779"/>
<polyline fill="none" stroke="black" points="834,-775 722,-775 "/>
<polyline fill="none" stroke="black" points="834,-775 834,-743 "/>
<polyline fill="none" stroke="black" points="834,-775 838,-779 "/>
<text text-anchor="middle" x="780" y="-757.3" font-family="Helvetica,sans-Serif" font-size="14.00">Scheduler Spool</text>
</g>
<!-- /action/create&#45;&gt;SchedulerSpool -->
<g id="edge5" class="edge"><title>/action/create&#45;&gt;SchedulerSpool</title>
<path fill="none" stroke="black" d="M623.373,-630.048C640.278,-655.625 674.408,-702.736 719.935,-736.968"/>
<polygon fill="black" stroke="black" points="718.104,-739.963 728.258,-742.987 722.206,-734.291 718.104,-739.963"/>
<text text-anchor="middle" x="697" y="-729.8" font-family="Times,serif" font-size="14.00">3</text>
</g>
<!-- Database -->
<g id="node12" class="node"><title>Database</title>
<polygon fill="black" stroke="black" points="1295.4,-767 1225.4,-767 1221.4,-763 1221.4,-695 1291.4,-695 1295.4,-699 1295.4,-767"/>
<polyline fill="none" stroke="black" points="1291.4,-763 1221.4,-763 "/>
<polyline fill="none" stroke="black" points="1291.4,-763 1291.4,-695 "/>
<polyline fill="none" stroke="black" points="1291.4,-763 1295.4,-767 "/>
<text text-anchor="middle" x="1258.4" y="-727.3" font-family="Helvetica,sans-Serif" font-size="14.00" fill="white">Database</text>
</g>
<!-- /action/create&#45;&gt;Database -->
<g id="edge4" class="edge"><title>/action/create&#45;&gt;Database</title>
<path fill="none" stroke="black" d="M660.223,-611.896C758.403,-612.971 987.563,-622.09 1169,-680 1183.95,-684.773 1199.14,-692.35 1212.62,-700.219"/>
<polygon fill="black" stroke="black" points="1210.83,-703.231 1221.2,-705.406 1214.45,-697.239 1210.83,-703.231"/>
<text text-anchor="middle" x="952" y="-647.8" font-family="Times,serif" font-size="14.00">3</text>
</g>
<!-- /action?id=xyz&#45;&gt;Database -->
<g id="edge29" class="edge"><title>/action?id=xyz&#45;&gt;Database</title>
<path fill="none" stroke="black" d="M662.56,-561.976C782.766,-572.118 1082.07,-601.621 1169,-650 1186.81,-659.913 1203.93,-674.095 1218.28,-687.829"/>
<polygon fill="black" stroke="black" points="1215.94,-690.433 1225.52,-694.946 1220.85,-685.44 1215.94,-690.433"/>
<text text-anchor="middle" x="952" y="-609.8" font-family="Times,serif" font-size="14.00">18</text>
</g>
<!-- processNewAction -->
<g id="node7" class="node"><title>processNewAction</title>
<polygon fill="orange" stroke="black" points="1016,-856 888,-856 888,-820 1016,-820 1016,-856"/>
<text text-anchor="middle" x="952" y="-834.3" font-family="Helvetica,sans-Serif" font-size="14.00">processNewAction</text>
</g>
<!-- SchedulerSpool&#45;&gt;processNewAction -->
<g id="edge6" class="edge"><title>SchedulerSpool&#45;&gt;processNewAction</title>
<path fill="none" stroke="black" d="M798.741,-779.048C812.977,-792.446 834.134,-810.054 856,-820 862.983,-823.177 870.501,-825.793 878.14,-827.947"/>
<polygon fill="black" stroke="black" points="877.293,-831.343 887.849,-830.437 879.032,-824.563 877.293,-831.343"/>
<text text-anchor="middle" x="863" y="-829.8" font-family="Times,serif" font-size="14.00">4</text>
</g>
<!-- sendCommands -->
<g id="node8" class="node"><title>sendCommands</title>
<polygon fill="orange" stroke="black" points="1010,-746 894,-746 894,-710 1010,-710 1010,-746"/>
<text text-anchor="middle" x="952" y="-724.3" font-family="Helvetica,sans-Serif" font-size="14.00">sendCommands</text>
</g>
<!-- SchedulerSpool&#45;&gt;sendCommands -->
<g id="edge9" class="edge"><title>SchedulerSpool&#45;&gt;sendCommands</title>
<path fill="none" stroke="black" d="M838.08,-749.92C852.798,-747.063 868.772,-743.962 883.946,-741.016"/>
<polygon fill="black" stroke="black" points="884.631,-744.449 893.781,-739.107 883.297,-737.577 884.631,-744.449"/>
<text text-anchor="middle" x="863" y="-749.8" font-family="Times,serif" font-size="14.00">7</text>
</g>
<!-- returnCommands -->
<g id="node10" class="node"><title>returnCommands</title>
<polygon fill="orange" stroke="black" points="1013,-800 891,-800 891,-764 1013,-764 1013,-800"/>
<text text-anchor="middle" x="952" y="-778.3" font-family="Helvetica,sans-Serif" font-size="14.00">returnCommands</text>
</g>
<!-- SchedulerSpool&#45;&gt;returnCommands -->
<g id="edge23" class="edge"><title>SchedulerSpool&#45;&gt;returnCommands</title>
<path fill="none" stroke="black" d="M838.069,-763.863C848.703,-764.676 859.705,-765.704 870,-767 873.618,-767.455 877.32,-767.969 881.051,-768.525"/>
<polygon fill="black" stroke="black" points="880.542,-771.987 890.964,-770.082 881.629,-765.072 880.542,-771.987"/>
<text text-anchor="middle" x="863" y="-770.8" font-family="Times,serif" font-size="14.00">14</text>
</g>
<!-- processNewAction&#45;&gt;SchedulerSpool -->
<g id="edge8" class="edge"><title>processNewAction&#45;&gt;SchedulerSpool</title>
<path fill="none" stroke="black" d="M911.471,-819.885C898.289,-813.86 883.519,-807.125 870,-801 857.211,-795.205 843.374,-788.97 830.508,-783.187"/>
<polygon fill="black" stroke="black" points="831.897,-779.973 821.341,-779.068 829.028,-786.359 831.897,-779.973"/>
<text text-anchor="middle" x="863" y="-804.8" font-family="Times,serif" font-size="14.00">6</text>
</g>
<!-- processNewAction&#45;&gt;Database -->
<g id="edge7" class="edge"><title>processNewAction&#45;&gt;Database</title>
<path fill="none" stroke="black" d="M1016.43,-854.141C1060.04,-862.549 1118.89,-868.547 1169,-855 1205.43,-845.152 1228.72,-807.738 1242.19,-776.558"/>
<polygon fill="black" stroke="black" points="1245.51,-777.7 1246.06,-767.119 1239.03,-775.044 1245.51,-777.7"/>
<text text-anchor="middle" x="1113.5" y="-865.8" font-family="Times,serif" font-size="14.00">5</text>
</g>
<!-- processNewAction&#45;&gt;Database -->
<g id="edge12" class="edge"><title>processNewAction&#45;&gt;Database</title>
<path fill="none" stroke="black" d="M1016.17,-839.082C1060.73,-837.607 1120.81,-830.996 1169,-809 1187.23,-800.677 1204.45,-787.307 1218.77,-773.97"/>
<polygon fill="black" stroke="black" points="1221.2,-776.484 1225.98,-767.026 1216.35,-771.442 1221.2,-776.484"/>
<text text-anchor="middle" x="1113.5" y="-838.8" font-family="Times,serif" font-size="14.00">10</text>
</g>
<!-- sendCommands&#45;&gt;Database -->
<g id="edge10" class="edge"><title>sendCommands&#45;&gt;Database</title>
<path fill="none" stroke="black" d="M1010.29,-726.019C1023.24,-723.844 1036.54,-720.144 1048,-714 1058.54,-708.349 1055.08,-698.865 1066,-694 1107.82,-675.376 1124.12,-684.986 1169,-694 1183.31,-696.873 1198.19,-702.121 1211.57,-707.779"/>
<polygon fill="black" stroke="black" points="1210.46,-711.113 1221.02,-711.943 1213.28,-704.708 1210.46,-711.113"/>
<text text-anchor="middle" x="1113.5" y="-697.8" font-family="Times,serif" font-size="14.00">8</text>
</g>
<!-- Relay -->
<g id="node13" class="node"><title>Relay</title>
<polygon fill="red" stroke="black" points="1149.5,-604 1077.5,-604 1077.5,-600 1073.5,-600 1073.5,-596 1077.5,-596 1077.5,-540 1073.5,-540 1073.5,-536 1077.5,-536 1077.5,-532 1149.5,-532 1149.5,-604"/>
<polyline fill="none" stroke="black" points="1077.5,-600 1081.5,-600 1081.5,-596 1077.5,-596 "/>
<polyline fill="none" stroke="black" points="1077.5,-540 1081.5,-540 1081.5,-536 1077.5,-536 "/>
<text text-anchor="middle" x="1113.5" y="-564.3" font-family="Helvetica,sans-Serif" font-size="14.00" fill="white">Relay</text>
</g>
<!-- sendCommands&#45;&gt;Relay -->
<g id="edge11" class="edge"><title>sendCommands&#45;&gt;Relay</title>
<path fill="none" stroke="black" d="M1008.46,-709.883C1011.05,-708.65 1013.57,-707.355 1016,-706 1032,-697.068 1036.12,-693.951 1048,-680 1065.12,-659.896 1080.13,-634.607 1091.36,-613.148"/>
<polygon fill="black" stroke="black" points="1094.49,-614.709 1095.93,-604.212 1088.26,-611.52 1094.49,-614.709"/>
<text text-anchor="middle" x="1041" y="-698.8" font-family="Times,serif" font-size="14.00">9</text>
</g>
<!-- recvAgentResults -->
<g id="node9" class="node"><title>recvAgentResults</title>
<polygon fill="orange" stroke="black" points="672,-765 550,-765 550,-729 672,-729 672,-765"/>
<text text-anchor="middle" x="611" y="-743.3" font-family="Helvetica,sans-Serif" font-size="14.00">recvAgentResults</text>
</g>
<!-- recvAgentResults&#45;&gt;SchedulerSpool -->
<g id="edge22" class="edge"><title>recvAgentResults&#45;&gt;SchedulerSpool</title>
<path fill="none" stroke="black" d="M672.291,-752.054C685.044,-753.123 698.583,-754.258 711.581,-755.348"/>
<polygon fill="black" stroke="black" points="711.606,-758.862 721.864,-756.21 712.191,-751.887 711.606,-758.862"/>
<text text-anchor="middle" x="697" y="-758.8" font-family="Times,serif" font-size="14.00">13</text>
</g>
<!-- updateAction -->
<g id="node11" class="node"><title>updateAction</title>
<polygon fill="orange" stroke="black" points="1161,-800 1066,-800 1066,-764 1161,-764 1161,-800"/>
<text text-anchor="middle" x="1113.5" y="-778.3" font-family="Helvetica,sans-Serif" font-size="14.00">updateAction</text>
</g>
<!-- returnCommands&#45;&gt;updateAction -->
<g id="edge25" class="edge"><title>returnCommands&#45;&gt;updateAction</title>
<path fill="none" stroke="black" d="M1013.04,-777.178C1024.64,-776.717 1036.7,-776.562 1048,-777 1050.5,-777.097 1053.06,-777.215 1055.64,-777.35"/>
<polygon fill="black" stroke="black" points="1055.48,-780.846 1065.67,-777.942 1055.89,-773.858 1055.48,-780.846"/>
<text text-anchor="middle" x="1041" y="-780.8" font-family="Times,serif" font-size="14.00">16</text>
</g>
<!-- returnCommands&#45;&gt;Database -->
<g id="edge24" class="edge"><title>returnCommands&#45;&gt;Database</title>
<path fill="none" stroke="black" d="M997.326,-763.929C1022.85,-753.844 1052.47,-742.764 1066,-740 1114.92,-730.011 1172.27,-728.641 1211.34,-729.218"/>
<polygon fill="black" stroke="black" points="1211.3,-732.717 1221.36,-729.414 1211.43,-725.719 1211.3,-732.717"/>
<text text-anchor="middle" x="1113.5" y="-743.8" font-family="Times,serif" font-size="14.00">15</text>
</g>
<!-- updateAction&#45;&gt;Database -->
<g id="edge26" class="edge"><title>updateAction&#45;&gt;Database</title>
<path fill="none" stroke="black" d="M1161.29,-765.301C1177.47,-759.527 1195.57,-753.067 1211.66,-747.324"/>
<polygon fill="black" stroke="black" points="1213.14,-750.511 1221.39,-743.853 1210.79,-743.918 1213.14,-750.511"/>
<text text-anchor="middle" x="1186" y="-762.8" font-family="Times,serif" font-size="14.00">17</text>
</g>
<!-- Relay&#45;&gt;recvAgentResults -->
<g id="edge21" class="edge"><title>Relay&#45;&gt;recvAgentResults</title>
<path fill="none" stroke="black" d="M1084.06,-604.437C1066.54,-624.416 1042.42,-647.916 1016,-662 958.981,-692.4 781.867,-722.144 682.116,-737.075"/>
<polygon fill="black" stroke="black" points="681.498,-733.628 672.121,-738.56 682.527,-740.552 681.498,-733.628"/>
<text text-anchor="middle" x="863" y="-710.8" font-family="Times,serif" font-size="14.00">13</text>
</g>
<!-- agent1 -->
<g id="node14" class="node"><title>agent1</title>
<polygon fill="white" stroke="black" points="1305.09,-310.562 1258.4,-323 1211.71,-310.562 1211.75,-290.438 1305.05,-290.438 1305.09,-310.562"/>
<text text-anchor="middle" x="1258.4" y="-301.3" font-family="Helvetica,sans-Serif" font-size="14.00">agent1</text>
</g>
<!-- Relay&#45;&gt;agent1 -->
<g id="edge13" class="edge"><title>Relay&#45;&gt;agent1</title>
<path fill="none" stroke="black" d="M1117.9,-531.994C1124.91,-466.485 1143.37,-331.97 1179,-304 1185.55,-298.861 1193.44,-296.233 1201.66,-295.211"/>
<polygon fill="black" stroke="black" points="1201.97,-298.7 1211.78,-294.699 1201.62,-291.709 1201.97,-298.7"/>
<text text-anchor="middle" x="1186" y="-307.8" font-family="Times,serif" font-size="14.00">11</text>
</g>
<!-- agent2 -->
<g id="node15" class="node"><title>agent2</title>
<polygon fill="white" stroke="black" points="1305.09,-472.562 1258.4,-485 1211.71,-472.562 1211.75,-452.438 1305.05,-452.438 1305.09,-472.562"/>
<text text-anchor="middle" x="1258.4" y="-463.3" font-family="Helvetica,sans-Serif" font-size="14.00">agent2</text>
</g>
<!-- Relay&#45;&gt;agent2 -->
<g id="edge14" class="edge"><title>Relay&#45;&gt;agent2</title>
<path fill="none" stroke="black" d="M1149.82,-543.034C1174.89,-525.319 1208,-501.915 1230.83,-485.776"/>
<polygon fill="black" stroke="black" points="1232.9,-488.603 1239.04,-479.973 1228.86,-482.887 1232.9,-488.603"/>
<text text-anchor="middle" x="1186" y="-524.8" font-family="Times,serif" font-size="14.00">11</text>
</g>
<!-- agent3 -->
<g id="node16" class="node"><title>agent3</title>
<polygon fill="white" stroke="black" points="1305.09,-418.562 1258.4,-431 1211.71,-418.562 1211.75,-398.438 1305.05,-398.438 1305.09,-418.562"/>
<text text-anchor="middle" x="1258.4" y="-409.3" font-family="Helvetica,sans-Serif" font-size="14.00">agent3</text>
</g>
<!-- Relay&#45;&gt;agent3 -->
<g id="edge15" class="edge"><title>Relay&#45;&gt;agent3</title>
<path fill="none" stroke="black" d="M1129.98,-531.925C1141.24,-508.49 1158.14,-478.273 1179,-456 1190.32,-443.917 1205.81,-434.439 1220.03,-427.493"/>
<polygon fill="black" stroke="black" points="1221.53,-430.658 1229.14,-423.291 1218.6,-424.301 1221.53,-430.658"/>
<text text-anchor="middle" x="1186" y="-459.8" font-family="Times,serif" font-size="14.00">11</text>
</g>
<!-- agentX -->
<g id="node17" class="node"><title>agentX</title>
<polygon fill="white" stroke="black" points="1305.7,-364.562 1258.4,-377 1211.1,-364.562 1211.14,-344.438 1305.65,-344.438 1305.7,-364.562"/>
<text text-anchor="middle" x="1258.4" y="-355.3" font-family="Helvetica,sans-Serif" font-size="14.00">agentX</text>
</g>
<!-- Relay&#45;&gt;agentX -->
<g id="edge16" class="edge"><title>Relay&#45;&gt;agentX</title>
<path fill="none" stroke="black" d="M1123.44,-531.647C1135.21,-490.958 1159.67,-425.561 1203,-386 1208.02,-381.415 1213.97,-377.426 1220.05,-374.025"/>
<polygon fill="black" stroke="black" points="1221.66,-377.131 1228.97,-369.46 1218.48,-370.899 1221.66,-377.131"/>
<text text-anchor="middle" x="1186" y="-414.8" font-family="Times,serif" font-size="14.00">11</text>
</g>
<!-- agent1&#45;&gt;Relay -->
<g id="edge17" class="edge"><title>agent1&#45;&gt;Relay</title>
<path fill="none" stroke="black" d="M1227.87,-314.947C1210.85,-322.236 1190.59,-333.88 1179,-351 1143.67,-403.197 1127.29,-475.156 1119.99,-521.632"/>
<polygon fill="black" stroke="black" points="1116.5,-521.314 1118.48,-531.721 1123.42,-522.347 1116.5,-521.314"/>
<text text-anchor="middle" x="1186" y="-354.8" font-family="Times,serif" font-size="14.00">12</text>
</g>
<!-- agent2&#45;&gt;Relay -->
<g id="edge18" class="edge"><title>agent2&#45;&gt;Relay</title>
<path fill="none" stroke="black" d="M1240.72,-480.604C1229.14,-490.642 1213.89,-505.095 1203,-520 1197.14,-528.024 1200.44,-533.411 1193,-540 1183.52,-548.395 1171.35,-554.322 1159.44,-558.488"/>
<polygon fill="black" stroke="black" points="1158.05,-555.255 1149.56,-561.588 1160.14,-561.934 1158.05,-555.255"/>
<text text-anchor="middle" x="1186" y="-553.8" font-family="Times,serif" font-size="14.00">12</text>
</g>
<!-- agent3&#45;&gt;Relay -->
<g id="edge19" class="edge"><title>agent3&#45;&gt;Relay</title>
<path fill="none" stroke="black" d="M1227.1,-422.863C1218.33,-426.976 1209.4,-432.571 1203,-440 1193.55,-450.969 1199.89,-458.269 1193,-471 1182.99,-489.495 1169.28,-507.911 1156.12,-523.649"/>
<polygon fill="black" stroke="black" points="1153.14,-521.745 1149.31,-531.622 1158.47,-526.291 1153.14,-521.745"/>
<text text-anchor="middle" x="1186" y="-495.8" font-family="Times,serif" font-size="14.00">12</text>
</g>
<!-- agentX&#45;&gt;Relay -->
<g id="edge20" class="edge"><title>agentX&#45;&gt;Relay</title>
<path fill="none" stroke="black" d="M1210.93,-363.004C1199.36,-365.971 1187.77,-370.898 1179,-379 1138.92,-416.028 1123.74,-478.961 1118,-521.952"/>
<polygon fill="black" stroke="black" points="1114.52,-521.534 1116.79,-531.884 1121.47,-522.38 1114.52,-521.534"/>
<text text-anchor="middle" x="1186" y="-382.8" font-family="Times,serif" font-size="14.00">12</text>
</g>
</g>
</svg>
