<?xml version="1.0" encoding="UTF-8" standalone="no"?>
<!DOCTYPE svg PUBLIC "-//W3C//DTD SVG 1.1//EN"
 "http://www.w3.org/Graphics/SVG/1.1/DTD/svg11.dtd">
<!-- Generated by graphviz version 2.34.0 (20140110.0949)
 -->
<!-- Title: mig Pages: 1 -->
<svg width="1332pt" height="788pt"
 viewBox="0.00 0.00 1332.00 788.00" xmlns="http://www.w3.org/2000/svg" xmlns:xlink="http://www.w3.org/1999/xlink">
<g id="graph0" class="graph" transform="scale(1 1) rotate(0) translate(4 784)">
<title>mig</title>
<polygon fill="white" stroke="white" points="-4,4 -4,-784 1328,-784 1328,4 -4,4"/>
<g id="clust1" class="cluster"><title>cluster_investigator</title>
<polygon fill="white" stroke="white" points="8,-63 8,-704 502,-704 502,-63 8,-63"/>
<text text-anchor="middle" x="255" y="-688.8" font-family="Helvetica,sans-Serif" font-size="14.00">Investigators</text>
</g>
<g id="clust2" class="cluster"><title>cluster_platform</title>
<polygon fill="white" stroke="gray" points="534,-253 534,-772 1305,-772 1305,-253 534,-253"/>
<text text-anchor="middle" x="919.5" y="-756.8" font-family="Helvetica,sans-Serif" font-size="14.00">MIG Platform</text>
</g>
<g id="clust3" class="cluster"><title>cluster_api</title>
<polygon fill="white" stroke="gray" stroke-dasharray="5,2" points="551,-579 551,-741 671,-741 671,-579 551,-579"/>
<text text-anchor="middle" x="611" y="-725.8" font-family="Helvetica,sans-Serif" font-size="14.00" fill="orange">API</text>
</g>
<g id="clust4" class="cluster"><title>cluster_scheduler</title>
<polygon fill="white" stroke="gray" stroke-dasharray="5,2" points="542,-385 542,-571 1170,-571 1170,-385 542,-385"/>
<text text-anchor="middle" x="856" y="-555.8" font-family="Helvetica,sans-Serif" font-size="14.00" fill="green">Scheduler</text>
</g>
<g id="clust5" class="cluster"><title>cluster_agents</title>
<polygon fill="white" stroke="black" points="1204,-8 1204,-245 1316,-245 1316,-8 1204,-8"/>
<text text-anchor="middle" x="1260" y="-229.8" font-family="Helvetica,sans-Serif" font-size="14.00">MIG Agents</text>
</g>
<!-- Investigator -->
<g id="node1" class="node"><title>Investigator</title>
<polygon fill="blue" stroke="black" points="201.744,-637.049 204.885,-637.148 207.994,-637.295 211.057,-637.491 214.063,-637.735 216.999,-638.027 219.854,-638.364 222.617,-638.748 225.276,-639.176 227.823,-639.647 230.248,-640.161 232.543,-640.715 234.7,-641.308 236.712,-641.939 238.574,-642.605 240.279,-643.306 241.824,-644.039 243.206,-644.801 244.422,-645.592 245.471,-646.408 246.352,-647.248 247.065,-648.109 247.61,-648.989 247.991,-649.886 248.209,-650.797 248.268,-651.719 248.171,-652.65 247.923,-653.587 247.529,-654.529 246.994,-655.471 246.324,-656.413 245.526,-657.35 244.606,-658.281 243.57,-659.203 242.425,-660.114 241.179,-661.011 239.838,-661.891 238.41,-662.752 236.9,-663.592 235.317,-664.408 233.666,-665.199 231.953,-665.961 230.185,-666.694 228.368,-667.395 226.507,-668.061 224.607,-668.692 222.672,-669.285 220.708,-669.839 218.718,-670.353 216.706,-670.824 214.675,-671.252 212.628,-671.636 210.568,-671.973 208.497,-672.265 206.418,-672.509 204.331,-672.705 202.24,-672.852 200.145,-672.951 198.049,-673 195.951,-673 193.855,-672.951 191.76,-672.852 189.669,-672.705 187.582,-672.509 185.503,-672.265 183.432,-671.973 181.372,-671.636 179.325,-671.252 177.294,-670.824 175.282,-670.353 173.292,-669.839 171.328,-669.285 169.393,-668.692 167.493,-668.061 165.632,-667.395 163.815,-666.694 162.047,-665.961 160.334,-665.199 158.683,-664.408 157.1,-663.592 155.59,-662.752 154.162,-661.891 152.821,-661.011 151.575,-660.114 150.43,-659.203 149.394,-658.281 148.474,-657.35 147.676,-656.413 147.006,-655.471 146.471,-654.529 146.077,-653.587 145.829,-652.65 145.732,-651.719 145.791,-650.797 146.009,-649.886 146.39,-648.989 146.935,-648.109 147.648,-647.248 148.529,-646.408 149.578,-645.592 150.794,-644.801 152.176,-644.039 153.721,-643.306 155.426,-642.605 157.288,-641.939 159.3,-641.308 161.457,-640.715 163.752,-640.161 166.177,-639.647 168.724,-639.176 171.383,-638.748 174.146,-638.364 177.001,-638.027 179.937,-637.735 182.943,-637.491 186.006,-637.295 189.115,-637.148 192.256,-637.049 195.416,-637 198.584,-637 201.744,-637.049"/>
<text text-anchor="middle" x="197" y="-651.9" font-family="Helvetica,sans-Serif" font-size="12.00" fill="white">Investigator</text>
</g>
<!-- Console -->
<g id="node2" class="node"><title>Console</title>
<polygon fill="black" stroke="green" points="494,-654 428,-654 428,-618 494,-618 494,-654"/>
<text text-anchor="middle" x="461" y="-632.3" font-family="Helvetica,sans-Serif" font-size="14.00" fill="green">Console</text>
</g>
<!-- Investigator&#45;&gt;Console -->
<g id="edge1" class="edge"><title>Investigator&#45;&gt;Console</title>
<path fill="none" stroke="black" d="M248.229,-651.718C284.871,-648.308 335.367,-641.481 378,-628 386.528,-625.303 387.295,-621.055 396,-619 403.154,-617.311 410.727,-617.526 418.062,-618.8"/>
<polygon fill="black" stroke="black" points="417.321,-622.221 427.858,-621.113 418.93,-615.408 417.321,-622.221"/>
<text text-anchor="middle" x="403" y="-622.8" font-family="Times,serif" font-size="14.00">0</text>
</g>
<!-- Investigator&#45;&gt;Console -->
<g id="edge26" class="edge"><title>Investigator&#45;&gt;Console</title>
<path fill="none" stroke="black" d="M248.206,-651.359C297.384,-647.793 371.483,-642.419 417.735,-639.065"/>
<polygon fill="black" stroke="black" points="418.007,-642.555 427.728,-638.34 417.501,-635.573 418.007,-642.555"/>
<text text-anchor="middle" x="403" y="-643.8" font-family="Times,serif" font-size="14.00">18</text>
</g>
<!-- /action/create -->
<g id="node4" class="node"><title>/action/create</title>
<polygon fill="blue" stroke="black" points="660,-623 562,-623 562,-587 660,-587 660,-623"/>
<text text-anchor="middle" x="611" y="-601.3" font-family="Helvetica,sans-Serif" font-size="14.00" fill="white">/action/create</text>
</g>
<!-- Console&#45;&gt;/action/create -->
<g id="edge2" class="edge"><title>Console&#45;&gt;/action/create</title>
<path fill="none" stroke="black" d="M494.114,-629.273C511.059,-625.724 532.375,-621.259 552.089,-617.13"/>
<polygon fill="black" stroke="black" points="552.845,-620.548 561.915,-615.072 551.41,-613.696 552.845,-620.548"/>
<text text-anchor="middle" x="519" y="-628.8" font-family="Times,serif" font-size="14.00">1</text>
</g>
<!-- /action?id=xyz -->
<g id="node5" class="node"><title>/action?id=xyz</title>
<polygon fill="blue" stroke="black" points="662.5,-710 559.5,-710 559.5,-674 662.5,-674 662.5,-710"/>
<text text-anchor="middle" x="611" y="-688.3" font-family="Helvetica,sans-Serif" font-size="14.00" fill="white">/action?id=xyz</text>
</g>
<!-- Console&#45;&gt;/action?id=xyz -->
<g id="edge27" class="edge"><title>Console&#45;&gt;/action?id=xyz</title>
<path fill="none" stroke="black" d="M494.145,-649.279C506.554,-654.318 520.894,-660.035 534,-665 539.074,-666.922 544.353,-668.881 549.659,-670.822"/>
<polygon fill="black" stroke="black" points="548.607,-674.163 559.201,-674.283 550.994,-667.582 548.607,-674.163"/>
<text text-anchor="middle" x="519" y="-664.8" font-family="Times,serif" font-size="14.00">18</text>
</g>
<!-- Legend -->
<g id="node3" class="node"><title>Legend</title>
<polygon fill="none" stroke="gray" points="378,-619 16,-619 16,-71 378,-71 378,-619"/>
<text text-anchor="start" x="24" y="-605.4" font-family="Helvetica,sans-Serif" font-size="12.00">===== Legend =====</text>
<text text-anchor="start" x="24" y="-578.4" font-family="Helvetica,sans-Serif" font-size="12.00">0 &#45; generate signed action</text>
<text text-anchor="start" x="24" y="-551.4" font-family="Helvetica,sans-Serif" font-size="12.00">1 &#45; HTTP POST action</text>
<text text-anchor="start" x="24" y="-524.4" font-family="Helvetica,sans-Serif" font-size="12.00">2 &#45; Generate ID, init timestamps, verify signature, set status to &#39;init&#39;</text>
<text text-anchor="start" x="24" y="-497.4" font-family="Helvetica,sans-Serif" font-size="12.00">3 &#45; Write action into spool</text>
<text text-anchor="start" x="24" y="-470.4" font-family="Helvetica,sans-Serif" font-size="12.00">4 &#45; Verify timestamps</text>
<text text-anchor="start" x="24" y="-443.4" font-family="Helvetica,sans-Serif" font-size="12.00">5 &#45; Find target agents, set status &#39;preparing&#39;, write to database</text>
<text text-anchor="start" x="24" y="-416.4" font-family="Helvetica,sans-Serif" font-size="12.00">6 &#45; Generate commands</text>
<text text-anchor="start" x="24" y="-389.4" font-family="Helvetica,sans-Serif" font-size="12.00">7 &#45; Process new commands</text>
<text text-anchor="start" x="24" y="-362.4" font-family="Helvetica,sans-Serif" font-size="12.00">8 &#45; Write command to database, set status to &#39;sent&#39;</text>
<text text-anchor="start" x="24" y="-335.4" font-family="Helvetica,sans-Serif" font-size="12.00">9 &#45; Publish command to mig.agt queues</text>
<text text-anchor="start" x="24" y="-308.4" font-family="Helvetica,sans-Serif" font-size="12.00">10 &#45; Update action in database, set status to &#39;inflight&#39;</text>
<text text-anchor="start" x="24" y="-281.4" font-family="Helvetica,sans-Serif" font-size="12.00">11 &#45; Push commands to agents</text>
<text text-anchor="start" x="24" y="-254.4" font-family="Helvetica,sans-Serif" font-size="12.00">12 &#45; Return commands results</text>
<text text-anchor="start" x="24" y="-227.4" font-family="Helvetica,sans-Serif" font-size="12.00">13 &#45; Push returned commands to scheduler</text>
<text text-anchor="start" x="24" y="-200.4" font-family="Helvetica,sans-Serif" font-size="12.00">14 &#45; Process returned commands</text>
<text text-anchor="start" x="24" y="-173.4" font-family="Helvetica,sans-Serif" font-size="12.00">15 &#45; Write results to database, set command status to &#39;success&#39;</text>
<text text-anchor="start" x="24" y="-146.4" font-family="Helvetica,sans-Serif" font-size="12.00">16 &#45; Notify action updater that command has finished</text>
<text text-anchor="start" x="24" y="-119.4" font-family="Helvetica,sans-Serif" font-size="12.00">17 &#45; When all commands are done, set action status to &#39;done&#39;</text>
<text text-anchor="start" x="24" y="-92.4" font-family="Helvetica,sans-Serif" font-size="12.00">18 &#45; Retrieve action results</text>
</g>
<!-- /action/create&#45;&gt;/action/create -->
<g id="edge3" class="edge"><title>/action/create&#45;&gt;/action/create</title>
<path fill="none" stroke="black" d="M595.442,-623.153C593.048,-632.539 598.234,-641 611,-641 618.779,-641 623.744,-637.858 625.893,-633.28"/>
<polygon fill="black" stroke="black" points="629.396,-633.361 626.558,-623.153 622.411,-632.902 629.396,-633.361"/>
<text text-anchor="middle" x="611" y="-644.8" font-family="Times,serif" font-size="14.00">2</text>
</g>
<!-- SchedulerSpool -->
<g id="node6" class="node"><title>SchedulerSpool</title>
<polygon fill="white" stroke="black" points="838,-486 726,-486 722,-482 722,-450 834,-450 838,-454 838,-486"/>
<polyline fill="none" stroke="black" points="834,-482 722,-482 "/>
<polyline fill="none" stroke="black" points="834,-482 834,-450 "/>
<polyline fill="none" stroke="black" points="834,-482 838,-486 "/>
<text text-anchor="middle" x="780" y="-464.3" font-family="Helvetica,sans-Serif" font-size="14.00">Scheduler Spool</text>
</g>
<!-- /action/create&#45;&gt;SchedulerSpool -->
<g id="edge4" class="edge"><title>/action/create&#45;&gt;SchedulerSpool</title>
<path fill="none" stroke="black" d="M655.916,-586.831C661.682,-583.392 667.234,-579.452 672,-575 701.651,-547.301 690.614,-522.344 719.385,-493.209"/>
<polygon fill="black" stroke="black" points="722.111,-495.458 727.113,-486.118 717.379,-490.3 722.111,-495.458"/>
<text text-anchor="middle" x="697" y="-552.8" font-family="Times,serif" font-size="14.00">3</text>
</g>
<!-- Database -->
<g id="node12" class="node"><title>Database</title>
<polygon fill="black" stroke="black" points="1297,-526 1227,-526 1223,-522 1223,-454 1293,-454 1297,-458 1297,-526"/>
<polyline fill="none" stroke="black" points="1293,-522 1223,-522 "/>
<polyline fill="none" stroke="black" points="1293,-522 1293,-454 "/>
<polyline fill="none" stroke="black" points="1293,-522 1297,-526 "/>
<text text-anchor="middle" x="1260" y="-486.3" font-family="Helvetica,sans-Serif" font-size="14.00" fill="white">Database</text>
</g>
<!-- /action?id=xyz&#45;&gt;Database -->
<g id="edge28" class="edge"><title>/action?id=xyz&#45;&gt;Database</title>
<path fill="none" stroke="black" d="M659.475,-673.897C692.492,-662.914 737.801,-651 779,-651 779,-651 779,-651 1115,-651 1177.4,-651 1219.52,-582.972 1241.36,-535.356"/>
<polygon fill="black" stroke="black" points="1244.6,-536.691 1245.46,-526.132 1238.2,-533.85 1244.6,-536.691"/>
<text text-anchor="middle" x="952" y="-654.8" font-family="Times,serif" font-size="14.00">18</text>
</g>
<!-- processNewAction -->
<g id="node7" class="node"><title>processNewAction</title>
<polygon fill="orange" stroke="black" points="1016,-539 888,-539 888,-503 1016,-503 1016,-539"/>
<text text-anchor="middle" x="952" y="-517.3" font-family="Helvetica,sans-Serif" font-size="14.00">processNewAction</text>
</g>
<!-- SchedulerSpool&#45;&gt;processNewAction -->
<g id="edge5" class="edge"><title>SchedulerSpool&#45;&gt;processNewAction</title>
<path fill="none" stroke="black" d="M830.188,-486.04C832.862,-487.313 835.482,-488.635 838,-490 846.675,-494.704 846.935,-499.099 856,-503 862.915,-505.976 870.323,-508.461 877.839,-510.537"/>
<polygon fill="black" stroke="black" points="877.196,-513.985 887.749,-513.037 878.909,-507.197 877.196,-513.985"/>
<text text-anchor="middle" x="863" y="-511.8" font-family="Times,serif" font-size="14.00">4</text>
</g>
<!-- sendCommands -->
<g id="node8" class="node"><title>sendCommands</title>
<polygon fill="orange" stroke="black" points="1010,-429 894,-429 894,-393 1010,-393 1010,-429"/>
<text text-anchor="middle" x="952" y="-407.3" font-family="Helvetica,sans-Serif" font-size="14.00">sendCommands</text>
</g>
<!-- SchedulerSpool&#45;&gt;sendCommands -->
<g id="edge8" class="edge"><title>SchedulerSpool&#45;&gt;sendCommands</title>
<path fill="none" stroke="black" d="M830.892,-449.872C833.331,-448.636 835.714,-447.344 838,-446 846.977,-440.722 846.628,-435.54 856,-431 864.669,-426.801 874.201,-423.48 883.78,-420.854"/>
<polygon fill="black" stroke="black" points="884.893,-424.183 893.744,-418.362 883.194,-417.393 884.893,-424.183"/>
<text text-anchor="middle" x="863" y="-434.8" font-family="Times,serif" font-size="14.00">7</text>
</g>
<!-- returnCommands -->
<g id="node10" class="node"><title>returnCommands</title>
<polygon fill="orange" stroke="black" points="1013,-483 891,-483 891,-447 1013,-447 1013,-483"/>
<text text-anchor="middle" x="952" y="-461.3" font-family="Helvetica,sans-Serif" font-size="14.00">returnCommands</text>
</g>
<!-- SchedulerSpool&#45;&gt;returnCommands -->
<g id="edge22" class="edge"><title>SchedulerSpool&#45;&gt;returnCommands</title>
<path fill="none" stroke="black" d="M838.077,-452.837C844.094,-451.678 850.149,-450.692 856,-450 864.016,-449.052 872.393,-448.996 880.707,-449.531"/>
<polygon fill="black" stroke="black" points="880.513,-453.027 890.791,-450.454 881.152,-446.056 880.513,-453.027"/>
<text text-anchor="middle" x="863" y="-453.8" font-family="Times,serif" font-size="14.00">14</text>
</g>
<!-- processNewAction&#45;&gt;SchedulerSpool -->
<g id="edge7" class="edge"><title>processNewAction&#45;&gt;SchedulerSpool</title>
<path fill="none" stroke="black" d="M911.853,-502.992C891.748,-493.764 871.19,-484.372 870,-484 862.916,-481.784 855.413,-479.841 847.887,-478.145"/>
<polygon fill="black" stroke="black" points="848.521,-474.702 838.013,-476.056 847.072,-481.55 848.521,-474.702"/>
<text text-anchor="middle" x="863" y="-487.8" font-family="Times,serif" font-size="14.00">6</text>
</g>
<!-- processNewAction&#45;&gt;Database -->
<g id="edge6" class="edge"><title>processNewAction&#45;&gt;Database</title>
<path fill="none" stroke="black" d="M1003.09,-539.095C1047.71,-552.493 1114.35,-565.77 1170,-549 1185.58,-544.305 1200.94,-535.894 1214.4,-526.866"/>
<polygon fill="black" stroke="black" points="1216.76,-529.481 1222.95,-520.878 1212.75,-523.747 1216.76,-529.481"/>
<text text-anchor="middle" x="1114" y="-560.8" font-family="Times,serif" font-size="14.00">5</text>
</g>
<!-- processNewAction&#45;&gt;Database -->
<g id="edge11" class="edge"><title>processNewAction&#45;&gt;Database</title>
<path fill="none" stroke="black" d="M992.337,-502.899C1013.64,-494.083 1040.72,-484.445 1066,-480 1115.6,-471.28 1173.38,-476.222 1212.7,-481.804"/>
<polygon fill="black" stroke="black" points="1212.37,-485.294 1222.78,-483.306 1213.4,-478.37 1212.37,-485.294"/>
<text text-anchor="middle" x="1114" y="-483.8" font-family="Times,serif" font-size="14.00">10</text>
</g>
<!-- sendCommands&#45;&gt;Database -->
<g id="edge9" class="edge"><title>sendCommands&#45;&gt;Database</title>
<path fill="none" stroke="black" d="M1010.38,-398.733C1055.38,-391.782 1118.76,-387.993 1170,-408 1190.52,-416.012 1209.16,-431.215 1224.02,-446.375"/>
<polygon fill="black" stroke="black" points="1221.59,-448.906 1231,-453.782 1226.69,-444.104 1221.59,-448.906"/>
<text text-anchor="middle" x="1114" y="-411.8" font-family="Times,serif" font-size="14.00">8</text>
</g>
<!-- Relay -->
<g id="node13" class="node"><title>Relay</title>
<polygon fill="red" stroke="black" points="1150,-333 1078,-333 1078,-329 1074,-329 1074,-325 1078,-325 1078,-269 1074,-269 1074,-265 1078,-265 1078,-261 1150,-261 1150,-333"/>
<polyline fill="none" stroke="black" points="1078,-329 1082,-329 1082,-325 1078,-325 "/>
<polyline fill="none" stroke="black" points="1078,-269 1082,-269 1082,-265 1078,-265 "/>
<text text-anchor="middle" x="1114" y="-293.3" font-family="Helvetica,sans-Serif" font-size="14.00" fill="white">Relay</text>
</g>
<!-- sendCommands&#45;&gt;Relay -->
<g id="edge10" class="edge"><title>sendCommands&#45;&gt;Relay</title>
<path fill="none" stroke="black" d="M1010.26,-393.576C1012.28,-392.166 1014.21,-390.644 1016,-389 1030.37,-375.827 1021.36,-363.838 1034,-349 1043.78,-337.526 1056.7,-327.593 1069.26,-319.573"/>
<polygon fill="black" stroke="black" points="1071.14,-322.526 1077.85,-314.33 1067.49,-316.551 1071.14,-322.526"/>
<text text-anchor="middle" x="1041" y="-352.8" font-family="Times,serif" font-size="14.00">9</text>
</g>
<!-- recvAgentResults -->
<g id="node9" class="node"><title>recvAgentResults</title>
<polygon fill="orange" stroke="black" points="672,-458 550,-458 550,-422 672,-422 672,-458"/>
<text text-anchor="middle" x="611" y="-436.3" font-family="Helvetica,sans-Serif" font-size="14.00">recvAgentResults</text>
</g>
<!-- recvAgentResults&#45;&gt;SchedulerSpool -->
<g id="edge21" class="edge"><title>recvAgentResults&#45;&gt;SchedulerSpool</title>
<path fill="none" stroke="black" d="M672.291,-450.109C685.171,-452.268 698.851,-454.562 711.967,-456.761"/>
<polygon fill="black" stroke="black" points="711.423,-460.218 721.864,-458.42 712.58,-453.315 711.423,-460.218"/>
<text text-anchor="middle" x="697" y="-458.8" font-family="Times,serif" font-size="14.00">13</text>
</g>
<!-- updateAction -->
<g id="node11" class="node"><title>updateAction</title>
<polygon fill="orange" stroke="black" points="1161.5,-540 1066.5,-540 1066.5,-504 1161.5,-504 1161.5,-540"/>
<text text-anchor="middle" x="1114" y="-518.3" font-family="Helvetica,sans-Serif" font-size="14.00">updateAction</text>
</g>
<!-- returnCommands&#45;&gt;updateAction -->
<g id="edge24" class="edge"><title>returnCommands&#45;&gt;updateAction</title>
<path fill="none" stroke="black" d="M1003.62,-483.035C1020.54,-489.062 1039.49,-495.814 1056.81,-501.982"/>
<polygon fill="black" stroke="black" points="1055.64,-505.282 1066.24,-505.341 1057.99,-498.688 1055.64,-505.282"/>
<text text-anchor="middle" x="1041" y="-502.8" font-family="Times,serif" font-size="14.00">16</text>
</g>
<!-- returnCommands&#45;&gt;Database -->
<g id="edge23" class="edge"><title>returnCommands&#45;&gt;Database</title>
<path fill="none" stroke="black" d="M1000.35,-446.973C1044.86,-432.658 1112.96,-417.547 1170,-434 1185.4,-438.441 1200.7,-446.419 1214.16,-454.988"/>
<polygon fill="black" stroke="black" points="1212.45,-458.058 1222.72,-460.673 1216.33,-452.226 1212.45,-458.058"/>
<text text-anchor="middle" x="1114" y="-437.8" font-family="Times,serif" font-size="14.00">15</text>
</g>
<!-- updateAction&#45;&gt;Database -->
<g id="edge25" class="edge"><title>updateAction&#45;&gt;Database</title>
<path fill="none" stroke="black" d="M1161.75,-511.611C1178.21,-507.953 1196.68,-503.848 1213.07,-500.206"/>
<polygon fill="black" stroke="black" points="1213.97,-503.592 1222.97,-498.006 1212.45,-496.759 1213.97,-503.592"/>
<text text-anchor="middle" x="1187" y="-510.8" font-family="Times,serif" font-size="14.00">17</text>
</g>
<!-- Relay&#45;&gt;recvAgentResults -->
<g id="edge20" class="edge"><title>Relay&#45;&gt;recvAgentResults</title>
<path fill="none" stroke="black" d="M1077.76,-307.06C995.772,-330.46 791.001,-388.908 682.323,-419.928"/>
<polygon fill="black" stroke="black" points="681.088,-416.641 672.432,-422.751 683.009,-423.372 681.088,-416.641"/>
<text text-anchor="middle" x="863" y="-374.8" font-family="Times,serif" font-size="14.00">13</text>
</g>
<!-- agent1 -->
<g id="node14" class="node"><title>agent1</title>
<polygon fill="white" stroke="black" points="1306.69,-147.562 1260,-160 1213.31,-147.562 1213.35,-127.438 1306.65,-127.438 1306.69,-147.562"/>
<text text-anchor="middle" x="1260" y="-138.3" font-family="Helvetica,sans-Serif" font-size="14.00">agent1</text>
</g>
<!-- Relay&#45;&gt;agent1 -->
<g id="edge12" class="edge"><title>Relay&#45;&gt;agent1</title>
<path fill="none" stroke="black" d="M1130.66,-260.931C1142.03,-237.498 1159.06,-207.281 1180,-185 1191.4,-172.865 1207.01,-163.378 1221.35,-156.439"/>
<polygon fill="black" stroke="black" points="1222.89,-159.585 1230.53,-152.245 1219.98,-153.218 1222.89,-159.585"/>
<text text-anchor="middle" x="1187" y="-188.8" font-family="Times,serif" font-size="14.00">11</text>
</g>
<!-- agent2 -->
<g id="node15" class="node"><title>agent2</title>
<polygon fill="white" stroke="black" points="1306.69,-93.5623 1260,-106 1213.31,-93.5623 1213.35,-73.4377 1306.65,-73.4377 1306.69,-93.5623"/>
<text text-anchor="middle" x="1260" y="-84.3" font-family="Helvetica,sans-Serif" font-size="14.00">agent2</text>
</g>
<!-- Relay&#45;&gt;agent2 -->
<g id="edge13" class="edge"><title>Relay&#45;&gt;agent2</title>
<path fill="none" stroke="black" d="M1117.56,-260.763C1122.53,-218.348 1137.12,-148.852 1180,-109 1186.57,-102.893 1194.71,-98.5211 1203.25,-95.4003"/>
<polygon fill="black" stroke="black" points="1204.48,-98.6844 1212.99,-92.3826 1202.41,-91.9978 1204.48,-98.6844"/>
<text text-anchor="middle" x="1187" y="-112.8" font-family="Times,serif" font-size="14.00">11</text>
</g>
<!-- agent3 -->
<g id="node16" class="node"><title>agent3</title>
<polygon fill="white" stroke="black" points="1306.69,-39.5623 1260,-52 1213.31,-39.5623 1213.35,-19.4377 1306.65,-19.4377 1306.69,-39.5623"/>
<text text-anchor="middle" x="1260" y="-30.3" font-family="Helvetica,sans-Serif" font-size="14.00">agent3</text>
</g>
<!-- Relay&#45;&gt;agent3 -->
<g id="edge14" class="edge"><title>Relay&#45;&gt;agent3</title>
<path fill="none" stroke="black" d="M1119.66,-260.953C1126.8,-216.045 1143.65,-138.367 1180,-82 1189.58,-67.1452 1205.54,-56.1876 1220.62,-48.5234"/>
<polygon fill="black" stroke="black" points="1222.28,-51.6089 1229.82,-44.1716 1219.29,-45.28 1222.28,-51.6089"/>
<text text-anchor="middle" x="1187" y="-85.8" font-family="Times,serif" font-size="14.00">11</text>
</g>
<!-- agentX -->
<g id="node17" class="node"><title>agentX</title>
<polygon fill="white" stroke="black" points="1307.3,-201.562 1260,-214 1212.7,-201.562 1212.75,-181.438 1307.25,-181.438 1307.3,-201.562"/>
<text text-anchor="middle" x="1260" y="-192.3" font-family="Helvetica,sans-Serif" font-size="14.00">agentX</text>
</g>
<!-- Relay&#45;&gt;agentX -->
<g id="edge15" class="edge"><title>Relay&#45;&gt;agentX</title>
<path fill="none" stroke="black" d="M1150.31,-294.762C1165.35,-292.145 1182.14,-286.789 1194,-276 1203.47,-267.391 1196.99,-259.709 1204,-249 1212.1,-236.62 1223.58,-224.965 1233.97,-215.754"/>
<polygon fill="black" stroke="black" points="1236.29,-218.373 1241.62,-209.215 1231.74,-213.052 1236.29,-218.373"/>
<text text-anchor="middle" x="1187" y="-288.8" font-family="Times,serif" font-size="14.00">11</text>
</g>
<!-- agent1&#45;&gt;Relay -->
<g id="edge16" class="edge"><title>agent1&#45;&gt;Relay</title>
<path fill="none" stroke="black" d="M1228.66,-151.668C1219.7,-155.79 1210.54,-161.438 1204,-169 1194.53,-179.948 1200.91,-187.28 1194,-200 1183.93,-218.526 1170.14,-236.95 1156.9,-252.685"/>
<polygon fill="black" stroke="black" points="1153.91,-250.791 1150.04,-260.655 1159.22,-255.355 1153.91,-250.791"/>
<text text-anchor="middle" x="1187" y="-224.8" font-family="Times,serif" font-size="14.00">12</text>
</g>
<!-- agent2&#45;&gt;Relay -->
<g id="edge17" class="edge"><title>agent2&#45;&gt;Relay</title>
<path fill="none" stroke="black" d="M1230.5,-98.2273C1221.33,-102.45 1211.6,-108.017 1204,-115 1164.05,-151.724 1139.93,-210.285 1127.07,-251.025"/>
<polygon fill="black" stroke="black" points="1123.68,-250.131 1124.11,-260.717 1130.38,-252.172 1123.68,-250.131"/>
<text text-anchor="middle" x="1187" y="-143.8" font-family="Times,serif" font-size="14.00">12</text>
</g>
<!-- agent3&#45;&gt;Relay -->
<g id="edge18" class="edge"><title>agent3&#45;&gt;Relay</title>
<path fill="none" stroke="black" d="M1213.19,-34.0698C1201.12,-36.2243 1188.98,-40.6166 1180,-49 1150.88,-76.1897 1130.7,-186.643 1121.2,-250.601"/>
<polygon fill="black" stroke="black" points="1117.68,-250.429 1119.71,-260.828 1124.61,-251.436 1117.68,-250.429"/>
<text text-anchor="middle" x="1187" y="-52.8" font-family="Times,serif" font-size="14.00">12</text>
</g>
<!-- agentX&#45;&gt;Relay -->
<g id="edge19" class="edge"><title>agentX&#45;&gt;Relay</title>
<path fill="none" stroke="black" d="M1240.41,-209.042C1219.8,-223.494 1185.87,-247.295 1158.49,-266.497"/>
<polygon fill="black" stroke="black" points="1156.4,-263.685 1150.23,-272.293 1160.42,-269.416 1156.4,-263.685"/>
<text text-anchor="middle" x="1187" y="-253.8" font-family="Times,serif" font-size="14.00">12</text>
</g>
</g>
</svg>
